<?xml version="1.0" encoding="utf-8" standalone="no"?>
<!DOCTYPE svg PUBLIC "-//W3C//DTD SVG 1.1//EN"
  "http://www.w3.org/Graphics/SVG/1.1/DTD/svg11.dtd">
<svg xmlns:xlink="http://www.w3.org/1999/xlink" width="288pt" height="144pt" viewBox="0 0 288 144" xmlns="http://www.w3.org/2000/svg" version="1.1">
 <metadata>
  <rdf:RDF xmlns:dc="http://purl.org/dc/elements/1.1/" xmlns:cc="http://creativecommons.org/ns#" xmlns:rdf="http://www.w3.org/1999/02/22-rdf-syntax-ns#">
   <cc:Work>
    <dc:type rdf:resource="http://purl.org/dc/dcmitype/StillImage"/>
    <dc:date>2025-01-20T17:06:57.403502</dc:date>
    <dc:format>image/svg+xml</dc:format>
    <dc:creator>
     <cc:Agent>
      <dc:title>Matplotlib v3.9.2, https://matplotlib.org/</dc:title>
     </cc:Agent>
    </dc:creator>
   </cc:Work>
  </rdf:RDF>
 </metadata>
 <defs>
  <style type="text/css">*{stroke-linejoin: round; stroke-linecap: butt}</style>
 </defs>
 <g id="figure_1">
  <g id="patch_1">
   <path d="M 0 144 
L 288 144 
L 288 0 
L 0 0 
z
" style="fill: #ffffff"/>
  </g>
  <g id="axes_1">
   <g id="patch_2">
    <path d="M 26.90524 116.67553 
L 122.19327 116.67553 
L 122.19327 14.72649 
L 26.90524 14.72649 
z
" style="fill: #ffffff"/>
   </g>
   <g id="PathCollection_1">
    <defs>
     <path id="me51b6c6559" d="M 0 1.118034 
C 0.296506 1.118034 0.580908 1.000231 0.790569 0.790569 
C 1.000231 0.580908 1.118034 0.296506 1.118034 0 
C 1.118034 -0.296506 1.000231 -0.580908 0.790569 -0.790569 
C 0.580908 -1.000231 0.296506 -1.118034 0 -1.118034 
C -0.296506 -1.118034 -0.580908 -1.000231 -0.790569 -0.790569 
C -1.000231 -0.580908 -1.118034 -0.296506 -1.118034 0 
C -1.118034 0.296506 -1.000231 0.580908 -0.790569 0.790569 
C -0.580908 1.000231 -0.296506 1.118034 0 1.118034 
z
" style="stroke: #004488"/>
    </defs>
    <g clip-path="url(#pc6742f1cda)">
     <use xlink:href="#me51b6c6559" x="35.020721" y="99.357798" style="fill: #004488; stroke: #004488"/>
     <use xlink:href="#me51b6c6559" x="46.312555" y="104.832864" style="fill: #004488; stroke: #004488"/>
     <use xlink:href="#me51b6c6559" x="54.279306" y="106.260708" style="fill: #004488; stroke: #004488"/>
     <use xlink:href="#me51b6c6559" x="54.82508" y="105.117464" style="fill: #004488; stroke: #004488"/>
     <use xlink:href="#me51b6c6559" x="45.422762" y="106.714191" style="fill: #004488; stroke: #004488"/>
     <use xlink:href="#me51b6c6559" x="60.053907" y="105.849774" style="fill: #004488; stroke: #004488"/>
     <use xlink:href="#me51b6c6559" x="55.260924" y="109.772965" style="fill: #004488; stroke: #004488"/>
     <use xlink:href="#me51b6c6559" x="85.013375" y="108.610026" style="fill: #004488; stroke: #004488"/>
     <use xlink:href="#me51b6c6559" x="76.506023" y="103.620975" style="fill: #004488; stroke: #004488"/>
     <use xlink:href="#me51b6c6559" x="42.658972" y="106.373415" style="fill: #004488; stroke: #004488"/>
     <use xlink:href="#me51b6c6559" x="55.760139" y="104.588442" style="fill: #004488; stroke: #004488"/>
     <use xlink:href="#me51b6c6559" x="35.262569" y="111.020579" style="fill: #004488; stroke: #004488"/>
     <use xlink:href="#me51b6c6559" x="75.767547" y="109.539928" style="fill: #004488; stroke: #004488"/>
     <use xlink:href="#me51b6c6559" x="66.255298" y="95.604345" style="fill: #004488; stroke: #004488"/>
     <use xlink:href="#me51b6c6559" x="45.80946" y="107.512944" style="fill: #004488; stroke: #004488"/>
     <use xlink:href="#me51b6c6559" x="57.397461" y="97.900889" style="fill: #004488; stroke: #004488"/>
     <use xlink:href="#me51b6c6559" x="60.551829" y="108.027631" style="fill: #004488; stroke: #004488"/>
     <use xlink:href="#me51b6c6559" x="82.845798" y="101.443499" style="fill: #004488; stroke: #004488"/>
     <use xlink:href="#me51b6c6559" x="40.547007" y="107.235264" style="fill: #004488; stroke: #004488"/>
     <use xlink:href="#me51b6c6559" x="45.396896" y="107.651341" style="fill: #004488; stroke: #004488"/>
     <use xlink:href="#me51b6c6559" x="85.493191" y="109.042011" style="fill: #004488; stroke: #004488"/>
     <use xlink:href="#me51b6c6559" x="40.311626" y="112.041483" style="fill: #004488; stroke: #004488"/>
     <use xlink:href="#me51b6c6559" x="42.733984" y="106.693198" style="fill: #004488; stroke: #004488"/>
     <use xlink:href="#me51b6c6559" x="65.715991" y="110.731597" style="fill: #004488; stroke: #004488"/>
     <use xlink:href="#me51b6c6559" x="77.067317" y="104.544208" style="fill: #004488; stroke: #004488"/>
     <use xlink:href="#me51b6c6559" x="88.858367" y="96.250542" style="fill: #004488; stroke: #004488"/>
     <use xlink:href="#me51b6c6559" x="93.159895" y="96.051484" style="fill: #004488; stroke: #004488"/>
     <use xlink:href="#me51b6c6559" x="74.836368" y="101.632855" style="fill: #004488; stroke: #004488"/>
     <use xlink:href="#me51b6c6559" x="99.667368" y="100.523602" style="fill: #004488; stroke: #004488"/>
     <use xlink:href="#me51b6c6559" x="103.984847" y="104.263607" style="fill: #004488; stroke: #004488"/>
     <use xlink:href="#me51b6c6559" x="102.003937" y="101.521568" style="fill: #004488; stroke: #004488"/>
     <use xlink:href="#me51b6c6559" x="103.937426" y="110.297264" style="fill: #004488; stroke: #004488"/>
     <use xlink:href="#me51b6c6559" x="99.357407" y="96.99573" style="fill: #004488; stroke: #004488"/>
     <use xlink:href="#me51b6c6559" x="79.027966" y="101.040029" style="fill: #004488; stroke: #004488"/>
    </g>
   </g>
   <g id="PolyCollection_1">
    <defs>
     <path id="medb0d90548" d="M 103.984847 -48.777403 
L 103.984847 -37.281504 
L 103.28824 -37.315498 
L 102.591633 -37.364135 
L 101.895025 -37.448948 
L 101.198418 -37.527729 
L 100.501811 -37.59213 
L 99.805203 -37.640508 
L 99.108596 -37.671786 
L 98.411989 -37.741508 
L 97.715381 -37.811043 
L 97.018774 -37.880394 
L 96.322166 -37.948916 
L 95.625559 -38.000215 
L 94.928952 -38.036024 
L 94.232344 -38.04588 
L 93.535737 -38.055704 
L 92.83913 -38.120748 
L 92.142522 -38.222316 
L 91.445915 -38.242094 
L 90.749308 -38.226884 
L 90.0527 -38.232205 
L 89.356093 -38.273574 
L 88.659486 -38.32777 
L 87.962878 -38.281511 
L 87.266271 -38.261289 
L 86.569664 -38.267639 
L 85.873056 -38.232617 
L 85.176449 -38.170812 
L 84.479842 -38.143315 
L 83.783234 -38.10402 
L 83.086627 -38.061108 
L 82.39002 -38.036856 
L 81.693412 -37.960407 
L 80.996805 -37.883589 
L 80.300198 -37.833471 
L 79.60359 -37.709393 
L 78.906983 -37.575366 
L 78.210376 -37.581727 
L 77.513768 -37.536318 
L 76.817161 -37.4999 
L 76.120554 -37.405739 
L 75.423946 -37.33412 
L 74.727339 -37.3114 
L 74.030732 -37.251097 
L 73.334124 -37.208292 
L 72.637517 -37.163923 
L 71.94091 -37.168939 
L 71.244302 -37.191872 
L 70.547695 -37.193383 
L 69.851088 -37.167787 
L 69.15448 -37.143056 
L 68.457873 -36.974818 
L 67.761266 -36.857968 
L 67.064658 -36.867279 
L 66.368051 -36.756939 
L 65.671444 -36.589901 
L 64.974836 -36.583179 
L 64.278229 -36.510002 
L 63.581622 -36.483932 
L 62.885014 -36.373655 
L 62.188407 -36.358052 
L 61.4918 -36.268174 
L 60.795192 -36.15793 
L 60.098585 -36.146594 
L 59.401978 -36.131315 
L 58.70537 -36.164828 
L 58.008763 -36.208423 
L 57.312156 -36.198693 
L 56.615548 -36.185996 
L 55.918941 -36.276883 
L 55.222334 -36.29863 
L 54.525726 -36.352794 
L 53.829119 -36.386346 
L 53.132512 -36.40697 
L 52.435904 -36.334812 
L 51.739297 -36.291702 
L 51.042689 -36.270963 
L 50.346082 -36.240834 
L 49.649475 -36.199787 
L 48.952867 -36.127655 
L 48.25626 -36.074 
L 47.559653 -35.978755 
L 46.863045 -35.871427 
L 46.166438 -35.758267 
L 45.469831 -35.621921 
L 44.773223 -35.476306 
L 44.076616 -35.347011 
L 43.380009 -35.221493 
L 42.683401 -35.081573 
L 41.986794 -34.969539 
L 41.290187 -34.835355 
L 40.593579 -34.636264 
L 39.896972 -34.47033 
L 39.200365 -34.295507 
L 38.503757 -34.141059 
L 37.80715 -33.982721 
L 37.110543 -33.831528 
L 36.413935 -33.636875 
L 35.717328 -33.437144 
L 35.020721 -33.209655 
L 35.020721 -40.634651 
L 35.020721 -40.634651 
L 35.717328 -40.480228 
L 36.413935 -40.328493 
L 37.110543 -40.191795 
L 37.80715 -40.092861 
L 38.503757 -39.999442 
L 39.200365 -39.886868 
L 39.896972 -39.67369 
L 40.593579 -39.558642 
L 41.290187 -39.51149 
L 41.986794 -39.395848 
L 42.683401 -39.251903 
L 43.380009 -39.126345 
L 44.076616 -39.057923 
L 44.773223 -38.971628 
L 45.469831 -38.899271 
L 46.166438 -38.87246 
L 46.863045 -38.880724 
L 47.559653 -38.838181 
L 48.25626 -38.838808 
L 48.952867 -38.867327 
L 49.649475 -38.983572 
L 50.346082 -39.156331 
L 51.042689 -39.340143 
L 51.739297 -39.485869 
L 52.435904 -39.641599 
L 53.132512 -39.765103 
L 53.829119 -39.916249 
L 54.525726 -40.098894 
L 55.222334 -40.342656 
L 55.918941 -40.586426 
L 56.615548 -40.757235 
L 57.312156 -40.9015 
L 58.008763 -41.064607 
L 58.70537 -41.123456 
L 59.401978 -41.286715 
L 60.098585 -41.399101 
L 60.795192 -41.361536 
L 61.4918 -41.322214 
L 62.188407 -41.308902 
L 62.885014 -41.384263 
L 63.581622 -41.483223 
L 64.278229 -41.59039 
L 64.974836 -41.617468 
L 65.671444 -41.625241 
L 66.368051 -41.663541 
L 67.064658 -41.645924 
L 67.761266 -41.633681 
L 68.457873 -41.66173 
L 69.15448 -41.719667 
L 69.851088 -41.740329 
L 70.547695 -41.758848 
L 71.244302 -41.840897 
L 71.94091 -41.946981 
L 72.637517 -41.963282 
L 73.334124 -42.029599 
L 74.030732 -42.166232 
L 74.727339 -42.339501 
L 75.423946 -42.50068 
L 76.120554 -42.60453 
L 76.817161 -42.647947 
L 77.513768 -42.640742 
L 78.210376 -42.801813 
L 78.906983 -42.927245 
L 79.60359 -43.031795 
L 80.300198 -43.117147 
L 80.996805 -43.270964 
L 81.693412 -43.40018 
L 82.39002 -43.450693 
L 83.086627 -43.530011 
L 83.783234 -43.669439 
L 84.479842 -43.819208 
L 85.176449 -43.882318 
L 85.873056 -44.02893 
L 86.569664 -44.231531 
L 87.266271 -44.473226 
L 87.962878 -44.700842 
L 88.659486 -44.907442 
L 89.356093 -45.081574 
L 90.0527 -45.20907 
L 90.749308 -45.284136 
L 91.445915 -45.409772 
L 92.142522 -45.546565 
L 92.83913 -45.719687 
L 93.535737 -45.90413 
L 94.232344 -46.091645 
L 94.928952 -46.264773 
L 95.625559 -46.447403 
L 96.322166 -46.683957 
L 97.018774 -46.927629 
L 97.715381 -47.123085 
L 98.411989 -47.319004 
L 99.108596 -47.491432 
L 99.805203 -47.661022 
L 100.501811 -47.830837 
L 101.198418 -48.007807 
L 101.895025 -48.203704 
L 102.591633 -48.410196 
L 103.28824 -48.597787 
L 103.984847 -48.777403 
z
" style="stroke: #004488; stroke-opacity: 0.2"/>
    </defs>
    <g clip-path="url(#pc6742f1cda)">
     <use xlink:href="#medb0d90548" x="0" y="144" style="fill: #004488; fill-opacity: 0.2; stroke: #004488; stroke-opacity: 0.2"/>
    </g>
   </g>
   <g id="PathCollection_2">
    <defs>
     <path id="m3d37059c14" d="M 0 1.118034 
C 0.296506 1.118034 0.580908 1.000231 0.790569 0.790569 
C 1.000231 0.580908 1.118034 0.296506 1.118034 0 
C 1.118034 -0.296506 1.000231 -0.580908 0.790569 -0.790569 
C 0.580908 -1.000231 0.296506 -1.118034 0 -1.118034 
C -0.296506 -1.118034 -0.580908 -1.000231 -0.790569 -0.790569 
C -1.000231 -0.580908 -1.118034 -0.296506 -1.118034 0 
C -1.118034 0.296506 -1.000231 0.580908 -0.790569 0.790569 
C -0.580908 1.000231 -0.296506 1.118034 0 1.118034 
z
" style="stroke: #ddaa33"/>
    </defs>
    <g clip-path="url(#pc6742f1cda)">
     <use xlink:href="#m3d37059c14" x="35.020721" y="93.857576" style="fill: #ddaa33; stroke: #ddaa33"/>
     <use xlink:href="#m3d37059c14" x="46.312555" y="59.456469" style="fill: #ddaa33; stroke: #ddaa33"/>
     <use xlink:href="#m3d37059c14" x="54.279306" y="72.045457" style="fill: #ddaa33; stroke: #ddaa33"/>
     <use xlink:href="#m3d37059c14" x="54.82508" y="75.739326" style="fill: #ddaa33; stroke: #ddaa33"/>
     <use xlink:href="#m3d37059c14" x="45.422762" y="94.754186" style="fill: #ddaa33; stroke: #ddaa33"/>
     <use xlink:href="#m3d37059c14" x="60.053907" y="60.037741" style="fill: #ddaa33; stroke: #ddaa33"/>
     <use xlink:href="#m3d37059c14" x="55.260924" y="96.628577" style="fill: #ddaa33; stroke: #ddaa33"/>
     <use xlink:href="#m3d37059c14" x="85.013375" y="81.212105" style="fill: #ddaa33; stroke: #ddaa33"/>
     <use xlink:href="#m3d37059c14" x="76.506023" y="68.747338" style="fill: #ddaa33; stroke: #ddaa33"/>
     <use xlink:href="#m3d37059c14" x="42.658972" y="54.835966" style="fill: #ddaa33; stroke: #ddaa33"/>
     <use xlink:href="#m3d37059c14" x="55.760139" y="82.826251" style="fill: #ddaa33; stroke: #ddaa33"/>
     <use xlink:href="#m3d37059c14" x="35.262569" y="19.360537" style="fill: #ddaa33; stroke: #ddaa33"/>
     <use xlink:href="#m3d37059c14" x="75.767547" y="98.004797" style="fill: #ddaa33; stroke: #ddaa33"/>
     <use xlink:href="#m3d37059c14" x="66.255298" y="65.71946" style="fill: #ddaa33; stroke: #ddaa33"/>
     <use xlink:href="#m3d37059c14" x="45.80946" y="56.853556" style="fill: #ddaa33; stroke: #ddaa33"/>
     <use xlink:href="#m3d37059c14" x="57.397461" y="47.255241" style="fill: #ddaa33; stroke: #ddaa33"/>
     <use xlink:href="#m3d37059c14" x="60.551829" y="103.871715" style="fill: #ddaa33; stroke: #ddaa33"/>
     <use xlink:href="#m3d37059c14" x="82.845798" y="83.504821" style="fill: #ddaa33; stroke: #ddaa33"/>
     <use xlink:href="#m3d37059c14" x="40.547007" y="51.118632" style="fill: #ddaa33; stroke: #ddaa33"/>
     <use xlink:href="#m3d37059c14" x="45.396896" y="96.401691" style="fill: #ddaa33; stroke: #ddaa33"/>
     <use xlink:href="#m3d37059c14" x="85.493191" y="100.114623" style="fill: #ddaa33; stroke: #ddaa33"/>
     <use xlink:href="#m3d37059c14" x="40.311626" y="61.221364" style="fill: #ddaa33; stroke: #ddaa33"/>
     <use xlink:href="#m3d37059c14" x="42.733984" y="79.424198" style="fill: #ddaa33; stroke: #ddaa33"/>
     <use xlink:href="#m3d37059c14" x="65.715991" y="78.758718" style="fill: #ddaa33; stroke: #ddaa33"/>
     <use xlink:href="#m3d37059c14" x="77.067317" y="68.493361" style="fill: #ddaa33; stroke: #ddaa33"/>
     <use xlink:href="#m3d37059c14" x="88.858367" y="70.653171" style="fill: #ddaa33; stroke: #ddaa33"/>
     <use xlink:href="#m3d37059c14" x="93.159895" y="88.057705" style="fill: #ddaa33; stroke: #ddaa33"/>
     <use xlink:href="#m3d37059c14" x="74.836368" y="98.126468" style="fill: #ddaa33; stroke: #ddaa33"/>
     <use xlink:href="#m3d37059c14" x="99.667368" y="98.148959" style="fill: #ddaa33; stroke: #ddaa33"/>
     <use xlink:href="#m3d37059c14" x="103.984847" y="94.550531" style="fill: #ddaa33; stroke: #ddaa33"/>
     <use xlink:href="#m3d37059c14" x="102.003937" y="93.825277" style="fill: #ddaa33; stroke: #ddaa33"/>
     <use xlink:href="#m3d37059c14" x="103.937426" y="87.450839" style="fill: #ddaa33; stroke: #ddaa33"/>
     <use xlink:href="#m3d37059c14" x="99.357407" y="79.706531" style="fill: #ddaa33; stroke: #ddaa33"/>
     <use xlink:href="#m3d37059c14" x="79.027966" y="60.742641" style="fill: #ddaa33; stroke: #ddaa33"/>
    </g>
   </g>
   <g id="PolyCollection_2">
    <defs>
     <path id="ma1cd99837b" d="M 103.984847 -60.1612 
L 103.984847 -47.270184 
L 103.28824 -47.560751 
L 102.591633 -47.965602 
L 101.895025 -48.436142 
L 101.198418 -48.778174 
L 100.501811 -49.229481 
L 99.805203 -49.56334 
L 99.108596 -50.023507 
L 98.411989 -50.426325 
L 97.715381 -50.924508 
L 97.018774 -51.13152 
L 96.322166 -51.468911 
L 95.625559 -51.725129 
L 94.928952 -51.950776 
L 94.232344 -52.166606 
L 93.535737 -52.28837 
L 92.83913 -52.381862 
L 92.142522 -52.51594 
L 91.445915 -52.77287 
L 90.749308 -53.063904 
L 90.0527 -53.296966 
L 89.356093 -53.502552 
L 88.659486 -53.710384 
L 87.962878 -53.865142 
L 87.266271 -54.020249 
L 86.569664 -54.174083 
L 85.873056 -54.354045 
L 85.176449 -54.493108 
L 84.479842 -54.683536 
L 83.783234 -54.717361 
L 83.086627 -54.819629 
L 82.39002 -54.95329 
L 81.693412 -55.075225 
L 80.996805 -55.264578 
L 80.300198 -55.461898 
L 79.60359 -55.581949 
L 78.906983 -55.699211 
L 78.210376 -55.959193 
L 77.513768 -56.205112 
L 76.817161 -56.466036 
L 76.120554 -56.565519 
L 75.423946 -56.692821 
L 74.727339 -56.809374 
L 74.030732 -57.244625 
L 73.334124 -57.355352 
L 72.637517 -57.168933 
L 71.94091 -57.149684 
L 71.244302 -57.301421 
L 70.547695 -57.526354 
L 69.851088 -57.634085 
L 69.15448 -57.659332 
L 68.457873 -57.896027 
L 67.761266 -57.872758 
L 67.064658 -57.613507 
L 66.368051 -57.643106 
L 65.671444 -57.392635 
L 64.974836 -57.011656 
L 64.278229 -57.012105 
L 63.581622 -57.126313 
L 62.885014 -57.38135 
L 62.188407 -57.696523 
L 61.4918 -58.079479 
L 60.795192 -58.367484 
L 60.098585 -58.41714 
L 59.401978 -58.529635 
L 58.70537 -58.662386 
L 58.008763 -58.98274 
L 57.312156 -59.330307 
L 56.615548 -59.586486 
L 55.918941 -59.726636 
L 55.222334 -59.83068 
L 54.525726 -59.887886 
L 53.829119 -60.091923 
L 53.132512 -60.324801 
L 52.435904 -60.345592 
L 51.739297 -60.428043 
L 51.042689 -60.388437 
L 50.346082 -60.330887 
L 49.649475 -60.384381 
L 48.952867 -60.156678 
L 48.25626 -59.98724 
L 47.559653 -59.83225 
L 46.863045 -59.599768 
L 46.166438 -59.268251 
L 45.469831 -58.854051 
L 44.773223 -58.740749 
L 44.076616 -58.204857 
L 43.380009 -57.914965 
L 42.683401 -57.405208 
L 41.986794 -57.063654 
L 41.290187 -56.631114 
L 40.593579 -56.238661 
L 39.896972 -55.890154 
L 39.200365 -55.53654 
L 38.503757 -55.183425 
L 37.80715 -54.830681 
L 37.110543 -54.478178 
L 36.413935 -54.072177 
L 35.717328 -53.666715 
L 35.020721 -53.25202 
L 35.020721 -108.069356 
L 35.020721 -108.069356 
L 35.717328 -106.142843 
L 36.413935 -104.648825 
L 37.110543 -103.210579 
L 37.80715 -101.981553 
L 38.503757 -100.587817 
L 39.200365 -99.241176 
L 39.896972 -97.988512 
L 40.593579 -96.612595 
L 41.290187 -95.576457 
L 41.986794 -94.657577 
L 42.683401 -93.703051 
L 43.380009 -92.687186 
L 44.076616 -91.660493 
L 44.773223 -90.735753 
L 45.469831 -89.362894 
L 46.166438 -88.522693 
L 46.863045 -87.596695 
L 47.559653 -86.764524 
L 48.25626 -85.936292 
L 48.952867 -85.249269 
L 49.649475 -84.567345 
L 50.346082 -84.188591 
L 51.042689 -83.662007 
L 51.739297 -82.84322 
L 52.435904 -82.151968 
L 53.132512 -81.497671 
L 53.829119 -81.079641 
L 54.525726 -80.638605 
L 55.222334 -80.511202 
L 55.918941 -80.334515 
L 56.615548 -80.186937 
L 57.312156 -79.891926 
L 58.008763 -79.430243 
L 58.70537 -78.889686 
L 59.401978 -78.58181 
L 60.098585 -78.716979 
L 60.795192 -78.733875 
L 61.4918 -78.712393 
L 62.188407 -78.452094 
L 62.885014 -78.315827 
L 63.581622 -78.310319 
L 64.278229 -78.028479 
L 64.974836 -77.44528 
L 65.671444 -76.825564 
L 66.368051 -76.488193 
L 67.064658 -76.087305 
L 67.761266 -75.693036 
L 68.457873 -75.394962 
L 69.15448 -75.071761 
L 69.851088 -74.81037 
L 70.547695 -74.34093 
L 71.244302 -73.969726 
L 71.94091 -73.695159 
L 72.637517 -73.437992 
L 73.334124 -73.325722 
L 74.030732 -73.048216 
L 74.727339 -72.594766 
L 75.423946 -72.350531 
L 76.120554 -72.148795 
L 76.817161 -71.841615 
L 77.513768 -71.811215 
L 78.210376 -71.541481 
L 78.906983 -71.262379 
L 79.60359 -70.890151 
L 80.300198 -70.341518 
L 80.996805 -69.826739 
L 81.693412 -69.262908 
L 82.39002 -68.931805 
L 83.086627 -68.627618 
L 83.783234 -68.163313 
L 84.479842 -67.64955 
L 85.176449 -67.226901 
L 85.873056 -66.807381 
L 86.569664 -66.376904 
L 87.266271 -65.878517 
L 87.962878 -65.371604 
L 88.659486 -64.967081 
L 89.356093 -64.60946 
L 90.0527 -64.33193 
L 90.749308 -64.06291 
L 91.445915 -63.832567 
L 92.142522 -63.625063 
L 92.83913 -63.346125 
L 93.535737 -63.026869 
L 94.232344 -62.557871 
L 94.928952 -62.441668 
L 95.625559 -62.150417 
L 96.322166 -61.948753 
L 97.018774 -61.694063 
L 97.715381 -61.436146 
L 98.411989 -61.308782 
L 99.108596 -61.141937 
L 99.805203 -60.974453 
L 100.501811 -60.803041 
L 101.198418 -60.769711 
L 101.895025 -60.718636 
L 102.591633 -60.53527 
L 103.28824 -60.349469 
L 103.984847 -60.1612 
z
" style="stroke: #ddaa33; stroke-opacity: 0.2"/>
    </defs>
    <g clip-path="url(#pc6742f1cda)">
     <use xlink:href="#ma1cd99837b" x="0" y="144" style="fill: #ddaa33; fill-opacity: 0.2; stroke: #ddaa33; stroke-opacity: 0.2"/>
    </g>
   </g>
   <g id="matplotlib.axis_1">
    <g id="xtick_1">
     <g id="line2d_1">
      <defs>
       <path id="mcd1eb77e49" d="M 0 0 
L 0 -3 
" style="stroke: #000000"/>
      </defs>
      <g>
       <use xlink:href="#mcd1eb77e49" x="109.073997" y="116.67553" style="stroke: #000000"/>
      </g>
     </g>
     <g id="line2d_2">
      <defs>
       <path id="mc1ae6f8278" d="M 0 0 
L 0 3 
" style="stroke: #000000"/>
      </defs>
      <g>
       <use xlink:href="#mc1ae6f8278" x="109.073997" y="14.72649" style="stroke: #000000"/>
      </g>
     </g>
     <g id="text_1">
      <text style="font: 8px 'Arial'; text-anchor: middle" x="109.073997" y="125.90178" transform="rotate(-0 109.073997 125.90178)">−50</text>
     </g>
    </g>
    <g id="xtick_2">
     <g id="line2d_3">
      <g>
       <use xlink:href="#mcd1eb77e49" x="76.741405" y="116.67553" style="stroke: #000000"/>
      </g>
     </g>
     <g id="line2d_4">
      <g>
       <use xlink:href="#mc1ae6f8278" x="76.741405" y="14.72649" style="stroke: #000000"/>
      </g>
     </g>
     <g id="text_2">
      <text style="font: 8px 'Arial'; text-anchor: middle" x="76.741405" y="125.90178" transform="rotate(-0 76.741405 125.90178)">0</text>
     </g>
    </g>
    <g id="xtick_3">
     <g id="line2d_5">
      <g>
       <use xlink:href="#mcd1eb77e49" x="44.408812" y="116.67553" style="stroke: #000000"/>
      </g>
     </g>
     <g id="line2d_6">
      <g>
       <use xlink:href="#mc1ae6f8278" x="44.408812" y="14.72649" style="stroke: #000000"/>
      </g>
     </g>
     <g id="text_3">
      <text style="font: 8px 'Arial'; text-anchor: middle" x="44.408812" y="125.90178" transform="rotate(-0 44.408812 125.90178)">50</text>
     </g>
    </g>
    <g id="xtick_4">
     <g id="line2d_7">
      <defs>
       <path id="m0b79c24dd2" d="M 0 0 
L 0 -1.5 
" style="stroke: #000000"/>
      </defs>
      <g>
       <use xlink:href="#m0b79c24dd2" x="122.007034" y="116.67553" style="stroke: #000000"/>
      </g>
     </g>
     <g id="line2d_8">
      <defs>
       <path id="m449a3c74da" d="M 0 0 
L 0 1.5 
" style="stroke: #000000"/>
      </defs>
      <g>
       <use xlink:href="#m449a3c74da" x="122.007034" y="14.72649" style="stroke: #000000"/>
      </g>
     </g>
    </g>
    <g id="xtick_5">
     <g id="line2d_9">
      <g>
       <use xlink:href="#m0b79c24dd2" x="115.540516" y="116.67553" style="stroke: #000000"/>
      </g>
     </g>
     <g id="line2d_10">
      <g>
       <use xlink:href="#m449a3c74da" x="115.540516" y="14.72649" style="stroke: #000000"/>
      </g>
     </g>
    </g>
    <g id="xtick_6">
     <g id="line2d_11">
      <g>
       <use xlink:href="#m0b79c24dd2" x="102.607479" y="116.67553" style="stroke: #000000"/>
      </g>
     </g>
     <g id="line2d_12">
      <g>
       <use xlink:href="#m449a3c74da" x="102.607479" y="14.72649" style="stroke: #000000"/>
      </g>
     </g>
    </g>
    <g id="xtick_7">
     <g id="line2d_13">
      <g>
       <use xlink:href="#m0b79c24dd2" x="96.14096" y="116.67553" style="stroke: #000000"/>
      </g>
     </g>
     <g id="line2d_14">
      <g>
       <use xlink:href="#m449a3c74da" x="96.14096" y="14.72649" style="stroke: #000000"/>
      </g>
     </g>
    </g>
    <g id="xtick_8">
     <g id="line2d_15">
      <g>
       <use xlink:href="#m0b79c24dd2" x="89.674442" y="116.67553" style="stroke: #000000"/>
      </g>
     </g>
     <g id="line2d_16">
      <g>
       <use xlink:href="#m449a3c74da" x="89.674442" y="14.72649" style="stroke: #000000"/>
      </g>
     </g>
    </g>
    <g id="xtick_9">
     <g id="line2d_17">
      <g>
       <use xlink:href="#m0b79c24dd2" x="83.207923" y="116.67553" style="stroke: #000000"/>
      </g>
     </g>
     <g id="line2d_18">
      <g>
       <use xlink:href="#m449a3c74da" x="83.207923" y="14.72649" style="stroke: #000000"/>
      </g>
     </g>
    </g>
    <g id="xtick_10">
     <g id="line2d_19">
      <g>
       <use xlink:href="#m0b79c24dd2" x="70.274886" y="116.67553" style="stroke: #000000"/>
      </g>
     </g>
     <g id="line2d_20">
      <g>
       <use xlink:href="#m449a3c74da" x="70.274886" y="14.72649" style="stroke: #000000"/>
      </g>
     </g>
    </g>
    <g id="xtick_11">
     <g id="line2d_21">
      <g>
       <use xlink:href="#m0b79c24dd2" x="63.808368" y="116.67553" style="stroke: #000000"/>
      </g>
     </g>
     <g id="line2d_22">
      <g>
       <use xlink:href="#m449a3c74da" x="63.808368" y="14.72649" style="stroke: #000000"/>
      </g>
     </g>
    </g>
    <g id="xtick_12">
     <g id="line2d_23">
      <g>
       <use xlink:href="#m0b79c24dd2" x="57.341849" y="116.67553" style="stroke: #000000"/>
      </g>
     </g>
     <g id="line2d_24">
      <g>
       <use xlink:href="#m449a3c74da" x="57.341849" y="14.72649" style="stroke: #000000"/>
      </g>
     </g>
    </g>
    <g id="xtick_13">
     <g id="line2d_25">
      <g>
       <use xlink:href="#m0b79c24dd2" x="50.875331" y="116.67553" style="stroke: #000000"/>
      </g>
     </g>
     <g id="line2d_26">
      <g>
       <use xlink:href="#m449a3c74da" x="50.875331" y="14.72649" style="stroke: #000000"/>
      </g>
     </g>
    </g>
    <g id="xtick_14">
     <g id="line2d_27">
      <g>
       <use xlink:href="#m0b79c24dd2" x="37.942294" y="116.67553" style="stroke: #000000"/>
      </g>
     </g>
     <g id="line2d_28">
      <g>
       <use xlink:href="#m449a3c74da" x="37.942294" y="14.72649" style="stroke: #000000"/>
      </g>
     </g>
    </g>
    <g id="xtick_15">
     <g id="line2d_29">
      <g>
       <use xlink:href="#m0b79c24dd2" x="31.475775" y="116.67553" style="stroke: #000000"/>
      </g>
     </g>
     <g id="line2d_30">
      <g>
       <use xlink:href="#m449a3c74da" x="31.475775" y="14.72649" style="stroke: #000000"/>
      </g>
     </g>
    </g>
   </g>
   <g id="matplotlib.axis_2">
    <g id="ytick_1">
     <g id="line2d_31">
      <defs>
       <path id="m0ae4ffa41b" d="M 0 0 
L 3 0 
" style="stroke: #000000"/>
      </defs>
      <g>
       <use xlink:href="#m0ae4ffa41b" x="26.90524" y="112.383102" style="stroke: #000000"/>
      </g>
     </g>
     <g id="line2d_32">
      <defs>
       <path id="m7d76c1de21" d="M 0 0 
L -3 0 
" style="stroke: #000000"/>
      </defs>
      <g>
       <use xlink:href="#m7d76c1de21" x="122.19327" y="112.383102" style="stroke: #000000"/>
      </g>
     </g>
     <g id="text_4">
      <text style="font: 8px 'Arial'; text-anchor: end" x="23.40524" y="115.246227" transform="rotate(-0 23.40524 115.246227)">0</text>
     </g>
    </g>
    <g id="ytick_2">
     <g id="line2d_33">
      <g>
       <use xlink:href="#m0ae4ffa41b" x="26.90524" y="95.350307" style="stroke: #000000"/>
      </g>
     </g>
     <g id="line2d_34">
      <g>
       <use xlink:href="#m7d76c1de21" x="122.19327" y="95.350307" style="stroke: #000000"/>
      </g>
     </g>
     <g id="text_5">
      <text style="font: 8px 'Arial'; text-anchor: end" x="23.40524" y="98.213432" transform="rotate(-0 23.40524 98.213432)">10</text>
     </g>
    </g>
    <g id="ytick_3">
     <g id="line2d_35">
      <g>
       <use xlink:href="#m0ae4ffa41b" x="26.90524" y="78.317512" style="stroke: #000000"/>
      </g>
     </g>
     <g id="line2d_36">
      <g>
       <use xlink:href="#m7d76c1de21" x="122.19327" y="78.317512" style="stroke: #000000"/>
      </g>
     </g>
     <g id="text_6">
      <text style="font: 8px 'Arial'; text-anchor: end" x="23.40524" y="81.180637" transform="rotate(-0 23.40524 81.180637)">20</text>
     </g>
    </g>
    <g id="ytick_4">
     <g id="line2d_37">
      <g>
       <use xlink:href="#m0ae4ffa41b" x="26.90524" y="61.284718" style="stroke: #000000"/>
      </g>
     </g>
     <g id="line2d_38">
      <g>
       <use xlink:href="#m7d76c1de21" x="122.19327" y="61.284718" style="stroke: #000000"/>
      </g>
     </g>
     <g id="text_7">
      <text style="font: 8px 'Arial'; text-anchor: end" x="23.40524" y="64.147843" transform="rotate(-0 23.40524 64.147843)">30</text>
     </g>
    </g>
    <g id="ytick_5">
     <g id="line2d_39">
      <g>
       <use xlink:href="#m0ae4ffa41b" x="26.90524" y="44.251923" style="stroke: #000000"/>
      </g>
     </g>
     <g id="line2d_40">
      <g>
       <use xlink:href="#m7d76c1de21" x="122.19327" y="44.251923" style="stroke: #000000"/>
      </g>
     </g>
     <g id="text_8">
      <text style="font: 8px 'Arial'; text-anchor: end" x="23.40524" y="47.115048" transform="rotate(-0 23.40524 47.115048)">40</text>
     </g>
    </g>
    <g id="ytick_6">
     <g id="line2d_41">
      <g>
       <use xlink:href="#m0ae4ffa41b" x="26.90524" y="27.219128" style="stroke: #000000"/>
      </g>
     </g>
     <g id="line2d_42">
      <g>
       <use xlink:href="#m7d76c1de21" x="122.19327" y="27.219128" style="stroke: #000000"/>
      </g>
     </g>
     <g id="text_9">
      <text style="font: 8px 'Arial'; text-anchor: end" x="23.40524" y="30.082253" transform="rotate(-0 23.40524 30.082253)">50</text>
     </g>
    </g>
    <g id="ytick_7">
     <g id="line2d_43">
      <defs>
       <path id="mc9929e628c" d="M 0 0 
L 1.5 0 
" style="stroke: #000000"/>
      </defs>
      <g>
       <use xlink:href="#mc9929e628c" x="26.90524" y="115.789661" style="stroke: #000000"/>
      </g>
     </g>
     <g id="line2d_44">
      <defs>
       <path id="m0a0258b016" d="M 0 0 
L -1.5 0 
" style="stroke: #000000"/>
      </defs>
      <g>
       <use xlink:href="#m0a0258b016" x="122.19327" y="115.789661" style="stroke: #000000"/>
      </g>
     </g>
    </g>
    <g id="ytick_8">
     <g id="line2d_45">
      <g>
       <use xlink:href="#mc9929e628c" x="26.90524" y="108.976543" style="stroke: #000000"/>
      </g>
     </g>
     <g id="line2d_46">
      <g>
       <use xlink:href="#m0a0258b016" x="122.19327" y="108.976543" style="stroke: #000000"/>
      </g>
     </g>
    </g>
    <g id="ytick_9">
     <g id="line2d_47">
      <g>
       <use xlink:href="#mc9929e628c" x="26.90524" y="105.569984" style="stroke: #000000"/>
      </g>
     </g>
     <g id="line2d_48">
      <g>
       <use xlink:href="#m0a0258b016" x="122.19327" y="105.569984" style="stroke: #000000"/>
      </g>
     </g>
    </g>
    <g id="ytick_10">
     <g id="line2d_49">
      <g>
       <use xlink:href="#mc9929e628c" x="26.90524" y="102.163425" style="stroke: #000000"/>
      </g>
     </g>
     <g id="line2d_50">
      <g>
       <use xlink:href="#m0a0258b016" x="122.19327" y="102.163425" style="stroke: #000000"/>
      </g>
     </g>
    </g>
    <g id="ytick_11">
     <g id="line2d_51">
      <g>
       <use xlink:href="#mc9929e628c" x="26.90524" y="98.756866" style="stroke: #000000"/>
      </g>
     </g>
     <g id="line2d_52">
      <g>
       <use xlink:href="#m0a0258b016" x="122.19327" y="98.756866" style="stroke: #000000"/>
      </g>
     </g>
    </g>
    <g id="ytick_12">
     <g id="line2d_53">
      <g>
       <use xlink:href="#mc9929e628c" x="26.90524" y="91.943748" style="stroke: #000000"/>
      </g>
     </g>
     <g id="line2d_54">
      <g>
       <use xlink:href="#m0a0258b016" x="122.19327" y="91.943748" style="stroke: #000000"/>
      </g>
     </g>
    </g>
    <g id="ytick_13">
     <g id="line2d_55">
      <g>
       <use xlink:href="#mc9929e628c" x="26.90524" y="88.537189" style="stroke: #000000"/>
      </g>
     </g>
     <g id="line2d_56">
      <g>
       <use xlink:href="#m0a0258b016" x="122.19327" y="88.537189" style="stroke: #000000"/>
      </g>
     </g>
    </g>
    <g id="ytick_14">
     <g id="line2d_57">
      <g>
       <use xlink:href="#mc9929e628c" x="26.90524" y="85.13063" style="stroke: #000000"/>
      </g>
     </g>
     <g id="line2d_58">
      <g>
       <use xlink:href="#m0a0258b016" x="122.19327" y="85.13063" style="stroke: #000000"/>
      </g>
     </g>
    </g>
    <g id="ytick_15">
     <g id="line2d_59">
      <g>
       <use xlink:href="#mc9929e628c" x="26.90524" y="81.724071" style="stroke: #000000"/>
      </g>
     </g>
     <g id="line2d_60">
      <g>
       <use xlink:href="#m0a0258b016" x="122.19327" y="81.724071" style="stroke: #000000"/>
      </g>
     </g>
    </g>
    <g id="ytick_16">
     <g id="line2d_61">
      <g>
       <use xlink:href="#mc9929e628c" x="26.90524" y="74.910954" style="stroke: #000000"/>
      </g>
     </g>
     <g id="line2d_62">
      <g>
       <use xlink:href="#m0a0258b016" x="122.19327" y="74.910954" style="stroke: #000000"/>
      </g>
     </g>
    </g>
    <g id="ytick_17">
     <g id="line2d_63">
      <g>
       <use xlink:href="#mc9929e628c" x="26.90524" y="71.504395" style="stroke: #000000"/>
      </g>
     </g>
     <g id="line2d_64">
      <g>
       <use xlink:href="#m0a0258b016" x="122.19327" y="71.504395" style="stroke: #000000"/>
      </g>
     </g>
    </g>
    <g id="ytick_18">
     <g id="line2d_65">
      <g>
       <use xlink:href="#mc9929e628c" x="26.90524" y="68.097836" style="stroke: #000000"/>
      </g>
     </g>
     <g id="line2d_66">
      <g>
       <use xlink:href="#m0a0258b016" x="122.19327" y="68.097836" style="stroke: #000000"/>
      </g>
     </g>
    </g>
    <g id="ytick_19">
     <g id="line2d_67">
      <g>
       <use xlink:href="#mc9929e628c" x="26.90524" y="64.691277" style="stroke: #000000"/>
      </g>
     </g>
     <g id="line2d_68">
      <g>
       <use xlink:href="#m0a0258b016" x="122.19327" y="64.691277" style="stroke: #000000"/>
      </g>
     </g>
    </g>
    <g id="ytick_20">
     <g id="line2d_69">
      <g>
       <use xlink:href="#mc9929e628c" x="26.90524" y="57.878159" style="stroke: #000000"/>
      </g>
     </g>
     <g id="line2d_70">
      <g>
       <use xlink:href="#m0a0258b016" x="122.19327" y="57.878159" style="stroke: #000000"/>
      </g>
     </g>
    </g>
    <g id="ytick_21">
     <g id="line2d_71">
      <g>
       <use xlink:href="#mc9929e628c" x="26.90524" y="54.4716" style="stroke: #000000"/>
      </g>
     </g>
     <g id="line2d_72">
      <g>
       <use xlink:href="#m0a0258b016" x="122.19327" y="54.4716" style="stroke: #000000"/>
      </g>
     </g>
    </g>
    <g id="ytick_22">
     <g id="line2d_73">
      <g>
       <use xlink:href="#mc9929e628c" x="26.90524" y="51.065041" style="stroke: #000000"/>
      </g>
     </g>
     <g id="line2d_74">
      <g>
       <use xlink:href="#m0a0258b016" x="122.19327" y="51.065041" style="stroke: #000000"/>
      </g>
     </g>
    </g>
    <g id="ytick_23">
     <g id="line2d_75">
      <g>
       <use xlink:href="#mc9929e628c" x="26.90524" y="47.658482" style="stroke: #000000"/>
      </g>
     </g>
     <g id="line2d_76">
      <g>
       <use xlink:href="#m0a0258b016" x="122.19327" y="47.658482" style="stroke: #000000"/>
      </g>
     </g>
    </g>
    <g id="ytick_24">
     <g id="line2d_77">
      <g>
       <use xlink:href="#mc9929e628c" x="26.90524" y="40.845364" style="stroke: #000000"/>
      </g>
     </g>
     <g id="line2d_78">
      <g>
       <use xlink:href="#m0a0258b016" x="122.19327" y="40.845364" style="stroke: #000000"/>
      </g>
     </g>
    </g>
    <g id="ytick_25">
     <g id="line2d_79">
      <g>
       <use xlink:href="#mc9929e628c" x="26.90524" y="37.438805" style="stroke: #000000"/>
      </g>
     </g>
     <g id="line2d_80">
      <g>
       <use xlink:href="#m0a0258b016" x="122.19327" y="37.438805" style="stroke: #000000"/>
      </g>
     </g>
    </g>
    <g id="ytick_26">
     <g id="line2d_81">
      <g>
       <use xlink:href="#mc9929e628c" x="26.90524" y="34.032246" style="stroke: #000000"/>
      </g>
     </g>
     <g id="line2d_82">
      <g>
       <use xlink:href="#m0a0258b016" x="122.19327" y="34.032246" style="stroke: #000000"/>
      </g>
     </g>
    </g>
    <g id="ytick_27">
     <g id="line2d_83">
      <g>
       <use xlink:href="#mc9929e628c" x="26.90524" y="30.625687" style="stroke: #000000"/>
      </g>
     </g>
     <g id="line2d_84">
      <g>
       <use xlink:href="#m0a0258b016" x="122.19327" y="30.625687" style="stroke: #000000"/>
      </g>
     </g>
    </g>
    <g id="ytick_28">
     <g id="line2d_85">
      <g>
       <use xlink:href="#mc9929e628c" x="26.90524" y="23.812569" style="stroke: #000000"/>
      </g>
     </g>
     <g id="line2d_86">
      <g>
       <use xlink:href="#m0a0258b016" x="122.19327" y="23.812569" style="stroke: #000000"/>
      </g>
     </g>
    </g>
    <g id="ytick_29">
     <g id="line2d_87">
      <g>
       <use xlink:href="#mc9929e628c" x="26.90524" y="20.40601" style="stroke: #000000"/>
      </g>
     </g>
     <g id="line2d_88">
      <g>
       <use xlink:href="#m0a0258b016" x="122.19327" y="20.40601" style="stroke: #000000"/>
      </g>
     </g>
    </g>
    <g id="ytick_30">
     <g id="line2d_89">
      <g>
       <use xlink:href="#mc9929e628c" x="26.90524" y="16.999451" style="stroke: #000000"/>
      </g>
     </g>
     <g id="line2d_90">
      <g>
       <use xlink:href="#m0a0258b016" x="122.19327" y="16.999451" style="stroke: #000000"/>
      </g>
     </g>
    </g>
    <g id="text_10">
     <text style="font: 700 8px 'Arial'; text-anchor: middle" x="8.82399" y="65.70101" transform="rotate(-90 8.82399 65.70101)">Coefficient of variation (%)</text>
    </g>
   </g>
   <g id="line2d_91">
    <path d="M 103.984847 101.145461 
L 103.28824 101.211801 
L 102.591633 101.278739 
L 101.895025 101.346186 
L 101.198418 101.414045 
L 100.501811 101.482215 
L 99.805203 101.550593 
L 99.108596 101.619071 
L 98.411989 101.687566 
L 97.715381 101.756023 
L 97.018774 101.824391 
L 96.322166 101.892615 
L 95.625559 101.960641 
L 94.928952 102.028413 
L 94.232344 102.095875 
L 93.535737 102.162967 
L 92.83913 102.229633 
L 92.142522 102.295836 
L 91.445915 102.361569 
L 90.749308 102.426829 
L 90.0527 102.491618 
L 89.356093 102.55594 
L 88.659486 102.619808 
L 87.962878 102.683256 
L 87.266271 102.746369 
L 86.569664 102.809248 
L 85.873056 102.872022 
L 85.176449 102.934846 
L 84.479842 102.997873 
L 83.783234 103.061215 
L 83.086627 103.124992 
L 82.39002 103.189367 
L 81.693412 103.254596 
L 80.996805 103.321072 
L 80.300198 103.389391 
L 79.60359 103.460469 
L 78.906983 103.535711 
L 78.210376 103.617231 
L 77.513768 103.707991 
L 76.817161 103.811443 
L 76.120554 103.930025 
L 75.423946 104.061843 
L 74.727339 104.162237 
L 74.030732 104.288146 
L 73.334124 104.407636 
L 72.637517 104.515891 
L 71.94091 104.580793 
L 71.244302 104.638164 
L 70.547695 104.724418 
L 69.851088 104.806351 
L 69.15448 104.87756 
L 68.457873 104.936647 
L 67.761266 104.985979 
L 67.064658 105.035675 
L 66.368051 105.082618 
L 65.671444 105.125181 
L 64.974836 105.167193 
L 64.278229 105.217603 
L 63.581622 105.283796 
L 62.885014 105.367288 
L 62.188407 105.422754 
L 61.4918 105.482453 
L 60.795192 105.546102 
L 60.098585 105.618314 
L 59.401978 105.697509 
L 58.70537 105.769353 
L 58.008763 105.833222 
L 57.312156 105.897867 
L 56.615548 105.962784 
L 55.918941 106.027764 
L 55.222334 106.092678 
L 54.525726 106.157456 
L 53.829119 106.222013 
L 53.132512 106.28631 
L 52.435904 106.350345 
L 51.739297 106.414135 
L 51.042689 106.477716 
L 50.346082 106.54113 
L 49.649475 106.604425 
L 48.952867 106.667649 
L 48.25626 106.730848 
L 47.559653 106.794067 
L 46.863045 106.857347 
L 46.166438 106.920725 
L 45.469831 106.984244 
L 44.773223 107.047959 
L 44.076616 107.11191 
L 43.380009 107.17613 
L 42.683401 107.240647 
L 41.986794 107.305491 
L 41.290187 107.370703 
L 40.593579 107.436322 
L 39.896972 107.502383 
L 39.200365 107.568879 
L 38.503757 107.635772 
L 37.80715 107.70302 
L 37.110543 107.770583 
L 36.413935 107.83842 
L 35.717328 107.906491 
L 35.020721 107.974754 
" clip-path="url(#pc6742f1cda)" style="fill: none; stroke: #004488; stroke-linecap: square"/>
   </g>
   <g id="line2d_92">
    <path d="M 103.984847 90.861623 
L 103.28824 90.567329 
L 102.591633 90.274056 
L 101.895025 89.981844 
L 101.198418 89.690724 
L 100.501811 89.4007 
L 99.805203 89.11177 
L 99.108596 88.823922 
L 98.411989 88.53712 
L 97.715381 88.251354 
L 97.018774 87.966613 
L 96.322166 87.682885 
L 95.625559 87.400155 
L 94.928952 87.118407 
L 94.232344 86.837619 
L 93.535737 86.55777 
L 92.83913 86.278831 
L 92.142522 86.000762 
L 91.445915 85.723509 
L 90.749308 85.447008 
L 90.0527 85.171186 
L 89.356093 84.895956 
L 88.659486 84.621218 
L 87.962878 84.346903 
L 87.266271 84.073024 
L 86.569664 83.799602 
L 85.873056 83.526659 
L 85.176449 83.25422 
L 84.479842 82.982212 
L 83.783234 82.710451 
L 83.086627 82.4387 
L 82.39002 82.166669 
L 81.693412 81.893991 
L 80.996805 81.620229 
L 80.300198 81.344908 
L 79.60359 81.067595 
L 78.906983 80.788079 
L 78.210376 80.506871 
L 77.513768 80.226079 
L 76.817161 79.950096 
L 76.120554 79.686041 
L 75.423946 79.442009 
L 74.727339 79.264958 
L 74.030732 79.061378 
L 73.334124 78.870846 
L 72.637517 78.690647 
L 71.94091 78.559707 
L 71.244302 78.435407 
L 70.547695 78.274947 
L 69.851088 78.112541 
L 69.15448 77.953566 
L 68.457873 77.797337 
L 67.761266 77.651538 
L 67.064658 77.542456 
L 66.368051 77.397936 
L 65.671444 77.236515 
L 64.974836 77.078371 
L 64.278229 76.945567 
L 63.581622 76.849674 
L 62.885014 76.793 
L 62.188407 76.643567 
L 61.4918 76.44554 
L 60.795192 76.208628 
L 60.098585 76.009249 
L 59.401978 75.890199 
L 58.70537 75.712561 
L 58.008763 75.411083 
L 57.312156 75.098426 
L 56.615548 74.779513 
L 55.918941 74.458008 
L 55.222334 74.136279 
L 54.525726 73.815465 
L 53.829119 73.495683 
L 53.132512 73.176816 
L 52.435904 72.858689 
L 51.739297 72.541077 
L 51.042689 72.223727 
L 50.346082 71.906372 
L 49.649475 71.588743 
L 48.952867 71.270577 
L 48.25626 70.951621 
L 47.559653 70.631638 
L 46.863045 70.310408 
L 46.166438 69.987726 
L 45.469831 69.663466 
L 44.773223 69.33764 
L 44.076616 69.009911 
L 43.380009 68.679831 
L 42.683401 68.346993 
L 41.986794 68.011026 
L 41.290187 67.671621 
L 40.593579 67.328519 
L 39.896972 66.981537 
L 39.200365 66.630788 
L 38.503757 66.276513 
L 37.80715 65.918955 
L 37.110543 65.558359 
L 36.413935 65.194967 
L 35.717328 64.82902 
L 35.020721 64.460761 
" clip-path="url(#pc6742f1cda)" style="fill: none; stroke: #ddaa33; stroke-linecap: square"/>
   </g>
   <g id="patch_3">
    <path d="M 26.90524 116.67553 
L 26.90524 14.72649 
" style="fill: none; stroke: #000000; stroke-linejoin: miter; stroke-linecap: square"/>
   </g>
   <g id="patch_4">
    <path d="M 122.19327 116.67553 
L 122.19327 14.72649 
" style="fill: none; stroke: #000000; stroke-linejoin: miter; stroke-linecap: square"/>
   </g>
   <g id="patch_5">
    <path d="M 26.90524 116.67553 
L 122.19327 116.67553 
" style="fill: none; stroke: #000000; stroke-linejoin: miter; stroke-linecap: square"/>
   </g>
   <g id="patch_6">
    <path d="M 26.90524 14.72649 
L 122.19327 14.72649 
" style="fill: none; stroke: #000000; stroke-linejoin: miter; stroke-linecap: square"/>
   </g>
   <g id="text_11">
    <!-- $\mathdefault{p = 0.029}$, r = -0.37 -->
    <g style="fill: #004488" transform="translate(34.709035 27.219128)">
     <text>
      <tspan style="font: 8px 'Arial'" x="0 5.658817 11.540289 15.989508 18.212164 22.661383 27.110602 31.559821 33.782477 36.005133 38.669196 40.891852 45.563727 47.786383 50.450446 54.899664 57.122321 61.571539" y="-0.25">p=0.029, r = -0.37</tspan>
     </text>
    </g>
   </g>
   <g id="text_12">
    <!-- $\mathdefault{p = 0.021}$, r = 0.39 -->
    <g style="fill: #ddaa33" transform="translate(34.709035 37.438805)">
     <text>
      <tspan style="font: 8px 'Arial'" x="0 5.658817 11.540289 15.989508 18.212164 22.661383 27.110602 31.559821 33.782477 36.005133 38.669196 40.891852 45.563727 47.786383 52.235602 54.458258 58.907477" y="-0.25">p=0.021, r = 0.39</tspan>
     </text>
    </g>
   </g>
   <g id="text_13">
    <text style="font: 8px 'Arial'; text-anchor: middle" x="74.549255" y="8.72649" transform="rotate(-0 74.549255 8.72649)">Radial artery</text>
   </g>
  </g>
  <g id="axes_2">
   <g id="patch_7">
    <path d="M 140.59125 116.67553 
L 235.87928 116.67553 
L 235.87928 14.72649 
L 140.59125 14.72649 
z
" style="fill: #ffffff"/>
   </g>
   <g id="PathCollection_3">
    <g clip-path="url(#pa0cfaecd11)">
     <use xlink:href="#me51b6c6559" x="144.922524" y="108.946563" style="fill: #004488; stroke: #004488"/>
     <use xlink:href="#me51b6c6559" x="154.049368" y="109.200519" style="fill: #004488; stroke: #004488"/>
     <use xlink:href="#me51b6c6559" x="158.475054" y="106.557335" style="fill: #004488; stroke: #004488"/>
     <use xlink:href="#me51b6c6559" x="163.851317" y="109.646153" style="fill: #004488; stroke: #004488"/>
     <use xlink:href="#me51b6c6559" x="157.242535" y="105.456043" style="fill: #004488; stroke: #004488"/>
     <use xlink:href="#me51b6c6559" x="156.514405" y="109.473816" style="fill: #004488; stroke: #004488"/>
     <use xlink:href="#me51b6c6559" x="162.793395" y="109.709538" style="fill: #004488; stroke: #004488"/>
     <use xlink:href="#me51b6c6559" x="200.449225" y="109.986294" style="fill: #004488; stroke: #004488"/>
     <use xlink:href="#me51b6c6559" x="184.364407" y="103.397024" style="fill: #004488; stroke: #004488"/>
     <use xlink:href="#me51b6c6559" x="162.793395" y="108.345825" style="fill: #004488; stroke: #004488"/>
     <use xlink:href="#me51b6c6559" x="180.948792" y="108.367566" style="fill: #004488; stroke: #004488"/>
     <use xlink:href="#me51b6c6559" x="146.456382" y="104.009505" style="fill: #004488; stroke: #004488"/>
     <use xlink:href="#me51b6c6559" x="187.968844" y="110.27603" style="fill: #004488; stroke: #004488"/>
     <use xlink:href="#me51b6c6559" x="169.589706" y="112.041483" style="fill: #004488; stroke: #004488"/>
     <use xlink:href="#me51b6c6559" x="157.874961" y="103.861392" style="fill: #004488; stroke: #004488"/>
     <use xlink:href="#me51b6c6559" x="179.412347" y="106.587068" style="fill: #004488; stroke: #004488"/>
     <use xlink:href="#me51b6c6559" x="177.112853" y="107.623653" style="fill: #004488; stroke: #004488"/>
     <use xlink:href="#me51b6c6559" x="211.019396" y="107.934316" style="fill: #004488; stroke: #004488"/>
     <use xlink:href="#me51b6c6559" x="150.879481" y="109.611553" style="fill: #004488; stroke: #004488"/>
     <use xlink:href="#me51b6c6559" x="157.699071" y="109.197161" style="fill: #004488; stroke: #004488"/>
     <use xlink:href="#me51b6c6559" x="182.319694" y="110.621781" style="fill: #004488; stroke: #004488"/>
     <use xlink:href="#me51b6c6559" x="155.115051" y="104.483344" style="fill: #004488; stroke: #004488"/>
     <use xlink:href="#me51b6c6559" x="157.577501" y="107.089995" style="fill: #004488; stroke: #004488"/>
     <use xlink:href="#me51b6c6559" x="174.019271" y="106.245204" style="fill: #004488; stroke: #004488"/>
     <use xlink:href="#me51b6c6559" x="174.733174" y="109.921539" style="fill: #004488; stroke: #004488"/>
     <use xlink:href="#me51b6c6559" x="207.663273" y="102.773123" style="fill: #004488; stroke: #004488"/>
     <use xlink:href="#me51b6c6559" x="209.484245" y="111.890776" style="fill: #004488; stroke: #004488"/>
     <use xlink:href="#me51b6c6559" x="191.269355" y="109.960077" style="fill: #004488; stroke: #004488"/>
     <use xlink:href="#me51b6c6559" x="216.103804" y="99.90972" style="fill: #004488; stroke: #004488"/>
     <use xlink:href="#me51b6c6559" x="231.548006" y="108.657804" style="fill: #004488; stroke: #004488"/>
     <use xlink:href="#me51b6c6559" x="204.433894" y="106.697626" style="fill: #004488; stroke: #004488"/>
     <use xlink:href="#me51b6c6559" x="208.443135" y="101.120892" style="fill: #004488; stroke: #004488"/>
     <use xlink:href="#me51b6c6559" x="209.761012" y="104.132744" style="fill: #004488; stroke: #004488"/>
     <use xlink:href="#me51b6c6559" x="199.261972" y="99.841269" style="fill: #004488; stroke: #004488"/>
    </g>
   </g>
   <g id="PolyCollection_3">
    <defs>
     <path id="m84653d1d19" d="M 231.548006 -47.136114 
L 231.548006 -34.945532 
L 230.673001 -34.947006 
L 229.797996 -34.940122 
L 228.922991 -34.916788 
L 228.047986 -34.893711 
L 227.172982 -34.874552 
L 226.297977 -34.859795 
L 225.422972 -34.845262 
L 224.547967 -34.830946 
L 223.672962 -34.816835 
L 222.797957 -34.802918 
L 221.922952 -34.788927 
L 221.047948 -34.820766 
L 220.172943 -34.869162 
L 219.297938 -34.917217 
L 218.422933 -34.921271 
L 217.547928 -34.925222 
L 216.672923 -34.928995 
L 215.797918 -34.930269 
L 214.922913 -34.907146 
L 214.047909 -34.88185 
L 213.172904 -34.882011 
L 212.297899 -34.88043 
L 211.422894 -34.856269 
L 210.547889 -34.825125 
L 209.672884 -34.794476 
L 208.797879 -34.767454 
L 207.922875 -34.745337 
L 207.04787 -34.729972 
L 206.172865 -34.714792 
L 205.29786 -34.699903 
L 204.422855 -34.684838 
L 203.54785 -34.669674 
L 202.672845 -34.662379 
L 201.79784 -34.663209 
L 200.922836 -34.664884 
L 200.047831 -34.66795 
L 199.172826 -34.673144 
L 198.297821 -34.681387 
L 197.422816 -34.703983 
L 196.547811 -34.731123 
L 195.672806 -34.736814 
L 194.797802 -34.756684 
L 193.922797 -34.779523 
L 193.047792 -34.795498 
L 192.172787 -34.771784 
L 191.297782 -34.676129 
L 190.422777 -34.653315 
L 189.547772 -34.620413 
L 188.672767 -34.636372 
L 187.797763 -34.599164 
L 186.922758 -34.544596 
L 186.047753 -34.435986 
L 185.172748 -34.347362 
L 184.297743 -34.29473 
L 183.422738 -34.301228 
L 182.547733 -34.225781 
L 181.672728 -34.231173 
L 180.797724 -34.250009 
L 179.922719 -34.269152 
L 179.047714 -34.365578 
L 178.172709 -34.329749 
L 177.297704 -34.332964 
L 176.422699 -34.369355 
L 175.547694 -34.364873 
L 174.67269 -34.302871 
L 173.797685 -34.28101 
L 172.92268 -34.342059 
L 172.047675 -34.41854 
L 171.17267 -34.4818 
L 170.297665 -34.547267 
L 169.42266 -34.539817 
L 168.547655 -34.640861 
L 167.672651 -34.661241 
L 166.797646 -34.678591 
L 165.922641 -34.739392 
L 165.047636 -34.747006 
L 164.172631 -34.838466 
L 163.297626 -34.959572 
L 162.422621 -34.983214 
L 161.547617 -34.965001 
L 160.672612 -34.987866 
L 159.797607 -34.993886 
L 158.922602 -34.996396 
L 158.047597 -35.016127 
L 157.172592 -35.053943 
L 156.297587 -35.049467 
L 155.422582 -35.057885 
L 154.547578 -35.059192 
L 153.672573 -35.051494 
L 152.797568 -35.032894 
L 151.922563 -35.014525 
L 151.047558 -34.995828 
L 150.172553 -34.991117 
L 149.297548 -34.967254 
L 148.422544 -34.940753 
L 147.547539 -34.922613 
L 146.672534 -34.908551 
L 145.797529 -34.884263 
L 144.922524 -34.864276 
L 144.922524 -39.288159 
L 144.922524 -39.288159 
L 145.797529 -39.109514 
L 146.672534 -38.94711 
L 147.547539 -38.79708 
L 148.422544 -38.667092 
L 149.297548 -38.568589 
L 150.172553 -38.482529 
L 151.047558 -38.395221 
L 151.922563 -38.27615 
L 152.797568 -38.165258 
L 153.672573 -38.038943 
L 154.547578 -37.912479 
L 155.422582 -37.75289 
L 156.297587 -37.642506 
L 157.172592 -37.551917 
L 158.047597 -37.509051 
L 158.922602 -37.450933 
L 159.797607 -37.40182 
L 160.672612 -37.339126 
L 161.547617 -37.27647 
L 162.422621 -37.244083 
L 163.297626 -37.20593 
L 164.172631 -37.159924 
L 165.047636 -37.133967 
L 165.922641 -37.092859 
L 166.797646 -37.05089 
L 167.672651 -37.049713 
L 168.547655 -37.05757 
L 169.42266 -37.069882 
L 170.297665 -37.088312 
L 171.17267 -37.087445 
L 172.047675 -37.067269 
L 172.92268 -37.154061 
L 173.797685 -37.141262 
L 174.67269 -37.171474 
L 175.547694 -37.189961 
L 176.422699 -37.24532 
L 177.297704 -37.322785 
L 178.172709 -37.405885 
L 179.047714 -37.446713 
L 179.922719 -37.530085 
L 180.797724 -37.629982 
L 181.672728 -37.747373 
L 182.547733 -37.916557 
L 183.422738 -38.143136 
L 184.297743 -38.3668 
L 185.172748 -38.519211 
L 186.047753 -38.602206 
L 186.922758 -38.696449 
L 187.797763 -38.737635 
L 188.672767 -38.849057 
L 189.547772 -38.920394 
L 190.422777 -39.034921 
L 191.297782 -39.155124 
L 192.172787 -39.273788 
L 193.047792 -39.400286 
L 193.922797 -39.49825 
L 194.797802 -39.616976 
L 195.672806 -39.760432 
L 196.547811 -39.89007 
L 197.422816 -40.046576 
L 198.297821 -40.160266 
L 199.172826 -40.322568 
L 200.047831 -40.486385 
L 200.922836 -40.650354 
L 201.79784 -40.832584 
L 202.672845 -40.994031 
L 203.54785 -41.127964 
L 204.422855 -41.245665 
L 205.29786 -41.449163 
L 206.172865 -41.603494 
L 207.04787 -41.696272 
L 207.922875 -41.814942 
L 208.797879 -41.939379 
L 209.672884 -42.163196 
L 210.547889 -42.364261 
L 211.422894 -42.554373 
L 212.297899 -42.717699 
L 213.172904 -42.908566 
L 214.047909 -43.095809 
L 214.922913 -43.282924 
L 215.797918 -43.475262 
L 216.672923 -43.725155 
L 217.547928 -43.904624 
L 218.422933 -44.079756 
L 219.297938 -44.283992 
L 220.172943 -44.512814 
L 221.047948 -44.73744 
L 221.922952 -44.939321 
L 222.797957 -45.138883 
L 223.672962 -45.341092 
L 224.547967 -45.531971 
L 225.422972 -45.728552 
L 226.297977 -45.925646 
L 227.172982 -46.13109 
L 228.047986 -46.340118 
L 228.922991 -46.538613 
L 229.797996 -46.737453 
L 230.673001 -46.936624 
L 231.548006 -47.136114 
z
" style="stroke: #004488; stroke-opacity: 0.2"/>
    </defs>
    <g clip-path="url(#pa0cfaecd11)">
     <use xlink:href="#m84653d1d19" x="0" y="144" style="fill: #004488; fill-opacity: 0.2; stroke: #004488; stroke-opacity: 0.2"/>
    </g>
   </g>
   <g id="PathCollection_4">
    <g clip-path="url(#pa0cfaecd11)">
     <use xlink:href="#m3d37059c14" x="144.922524" y="63.998349" style="fill: #ddaa33; stroke: #ddaa33"/>
     <use xlink:href="#m3d37059c14" x="154.049368" y="98.421823" style="fill: #ddaa33; stroke: #ddaa33"/>
     <use xlink:href="#m3d37059c14" x="158.475054" y="100.75142" style="fill: #ddaa33; stroke: #ddaa33"/>
     <use xlink:href="#m3d37059c14" x="163.851317" y="111.050344" style="fill: #ddaa33; stroke: #ddaa33"/>
     <use xlink:href="#m3d37059c14" x="157.242535" y="85.315494" style="fill: #ddaa33; stroke: #ddaa33"/>
     <use xlink:href="#m3d37059c14" x="156.514405" y="105.550563" style="fill: #ddaa33; stroke: #ddaa33"/>
     <use xlink:href="#m3d37059c14" x="162.793395" y="100.871695" style="fill: #ddaa33; stroke: #ddaa33"/>
     <use xlink:href="#m3d37059c14" x="200.449225" y="103.500732" style="fill: #ddaa33; stroke: #ddaa33"/>
     <use xlink:href="#m3d37059c14" x="184.364407" y="85.950922" style="fill: #ddaa33; stroke: #ddaa33"/>
     <use xlink:href="#m3d37059c14" x="162.793395" y="70.812936" style="fill: #ddaa33; stroke: #ddaa33"/>
     <use xlink:href="#m3d37059c14" x="180.948792" y="72.755699" style="fill: #ddaa33; stroke: #ddaa33"/>
     <use xlink:href="#m3d37059c14" x="146.456382" y="63.186709" style="fill: #ddaa33; stroke: #ddaa33"/>
     <use xlink:href="#m3d37059c14" x="187.968844" y="19.360537" style="fill: #ddaa33; stroke: #ddaa33"/>
     <use xlink:href="#m3d37059c14" x="169.589706" y="91.592769" style="fill: #ddaa33; stroke: #ddaa33"/>
     <use xlink:href="#m3d37059c14" x="157.874961" y="79.538879" style="fill: #ddaa33; stroke: #ddaa33"/>
     <use xlink:href="#m3d37059c14" x="179.412347" y="85.618229" style="fill: #ddaa33; stroke: #ddaa33"/>
     <use xlink:href="#m3d37059c14" x="177.112853" y="81.626553" style="fill: #ddaa33; stroke: #ddaa33"/>
     <use xlink:href="#m3d37059c14" x="211.019396" y="100.988561" style="fill: #ddaa33; stroke: #ddaa33"/>
     <use xlink:href="#m3d37059c14" x="150.879481" y="67.99176" style="fill: #ddaa33; stroke: #ddaa33"/>
     <use xlink:href="#m3d37059c14" x="157.699071" y="76.110496" style="fill: #ddaa33; stroke: #ddaa33"/>
     <use xlink:href="#m3d37059c14" x="182.319694" y="91.347957" style="fill: #ddaa33; stroke: #ddaa33"/>
     <use xlink:href="#m3d37059c14" x="155.115051" y="91.9379" style="fill: #ddaa33; stroke: #ddaa33"/>
     <use xlink:href="#m3d37059c14" x="157.577501" y="97.070455" style="fill: #ddaa33; stroke: #ddaa33"/>
     <use xlink:href="#m3d37059c14" x="174.019271" y="67.217488" style="fill: #ddaa33; stroke: #ddaa33"/>
     <use xlink:href="#m3d37059c14" x="174.733174" y="79.979836" style="fill: #ddaa33; stroke: #ddaa33"/>
     <use xlink:href="#m3d37059c14" x="207.663273" y="82.191232" style="fill: #ddaa33; stroke: #ddaa33"/>
     <use xlink:href="#m3d37059c14" x="209.484245" y="86.609907" style="fill: #ddaa33; stroke: #ddaa33"/>
     <use xlink:href="#m3d37059c14" x="191.269355" y="96.044504" style="fill: #ddaa33; stroke: #ddaa33"/>
     <use xlink:href="#m3d37059c14" x="216.103804" y="102.941568" style="fill: #ddaa33; stroke: #ddaa33"/>
     <use xlink:href="#m3d37059c14" x="231.548006" y="85.574554" style="fill: #ddaa33; stroke: #ddaa33"/>
     <use xlink:href="#m3d37059c14" x="204.433894" y="102.442417" style="fill: #ddaa33; stroke: #ddaa33"/>
     <use xlink:href="#m3d37059c14" x="208.443135" y="62.469724" style="fill: #ddaa33; stroke: #ddaa33"/>
     <use xlink:href="#m3d37059c14" x="209.761012" y="73.709298" style="fill: #ddaa33; stroke: #ddaa33"/>
     <use xlink:href="#m3d37059c14" x="199.261972" y="75.262703" style="fill: #ddaa33; stroke: #ddaa33"/>
    </g>
   </g>
   <g id="PolyCollection_4">
    <defs>
     <path id="m267fcea07c" d="M 231.548006 -71.237144 
L 231.548006 -35.722093 
L 230.673001 -36.086156 
L 229.797996 -36.451041 
L 228.922991 -36.816783 
L 228.047986 -37.146323 
L 227.172982 -37.456314 
L 226.297977 -37.766697 
L 225.422972 -38.077505 
L 224.547967 -38.388774 
L 223.672962 -38.700546 
L 222.797957 -39.043557 
L 221.922952 -39.467748 
L 221.047948 -39.892984 
L 220.172943 -40.317283 
L 219.297938 -40.740601 
L 218.422933 -41.191433 
L 217.547928 -41.693919 
L 216.672923 -42.139066 
L 215.797918 -42.583256 
L 214.922913 -43.01736 
L 214.047909 -43.356944 
L 213.172904 -43.599281 
L 212.297899 -43.843454 
L 211.422894 -44.084655 
L 210.547889 -44.328823 
L 209.672884 -44.576129 
L 208.797879 -44.906344 
L 207.922875 -45.283871 
L 207.04787 -45.663865 
L 206.172865 -46.063526 
L 205.29786 -46.511537 
L 204.422855 -46.962484 
L 203.54785 -47.248403 
L 202.672845 -47.519917 
L 201.79784 -47.813702 
L 200.922836 -48.239867 
L 200.047831 -48.445884 
L 199.172826 -48.643128 
L 198.297821 -48.94782 
L 197.422816 -49.329067 
L 196.547811 -49.718583 
L 195.672806 -50.068251 
L 194.797802 -50.334759 
L 193.922797 -50.551759 
L 193.047792 -50.912586 
L 192.172787 -51.278999 
L 191.297782 -51.635858 
L 190.422777 -52.063179 
L 189.547772 -52.465747 
L 188.672767 -52.922282 
L 187.797763 -53.054714 
L 186.922758 -53.211392 
L 186.047753 -53.274071 
L 185.172748 -53.235662 
L 184.297743 -53.464062 
L 183.422738 -53.459253 
L 182.547733 -53.622754 
L 181.672728 -53.829671 
L 180.797724 -53.866275 
L 179.922719 -53.891606 
L 179.047714 -53.799884 
L 178.172709 -53.65427 
L 177.297704 -53.728145 
L 176.422699 -53.734538 
L 175.547694 -53.657761 
L 174.67269 -53.47957 
L 173.797685 -53.44226 
L 172.92268 -53.230814 
L 172.047675 -53.010937 
L 171.17267 -52.773751 
L 170.297665 -52.654661 
L 169.42266 -52.493857 
L 168.547655 -52.17727 
L 167.672651 -51.632093 
L 166.797646 -51.18933 
L 165.922641 -50.869115 
L 165.047636 -50.644819 
L 164.172631 -50.369291 
L 163.297626 -50.172508 
L 162.422621 -49.892673 
L 161.547617 -49.96106 
L 160.672612 -50.107711 
L 159.797607 -49.859092 
L 158.922602 -49.975525 
L 158.047597 -50.206742 
L 157.172592 -50.244836 
L 156.297587 -49.90259 
L 155.422582 -49.570791 
L 154.547578 -48.98793 
L 153.672573 -48.369347 
L 152.797568 -47.922205 
L 151.922563 -47.561809 
L 151.047558 -47.374 
L 150.172553 -47.193002 
L 149.297548 -47.019112 
L 148.422544 -46.850005 
L 147.547539 -46.582254 
L 146.672534 -46.234744 
L 145.797529 -45.822842 
L 144.922524 -45.426639 
L 144.922524 -78.967831 
L 144.922524 -78.967831 
L 145.797529 -77.772774 
L 146.672534 -76.405716 
L 147.547539 -75.25811 
L 148.422544 -74.176504 
L 149.297548 -73.413952 
L 150.172553 -72.84184 
L 151.047558 -72.207378 
L 151.922563 -71.529386 
L 152.797568 -70.823097 
L 153.672573 -70.21403 
L 154.547578 -69.686624 
L 155.422582 -69.255846 
L 156.297587 -68.803526 
L 157.172592 -68.270926 
L 158.047597 -67.783803 
L 158.922602 -67.371007 
L 159.797607 -66.977814 
L 160.672612 -66.585582 
L 161.547617 -66.198077 
L 162.422621 -66.001091 
L 163.297626 -65.911877 
L 164.172631 -65.572988 
L 165.047636 -65.416018 
L 165.922641 -65.239214 
L 166.797646 -64.931217 
L 167.672651 -64.794036 
L 168.547655 -64.541181 
L 169.42266 -64.470736 
L 170.297665 -64.410588 
L 171.17267 -64.677311 
L 172.047675 -64.959831 
L 172.92268 -65.483393 
L 173.797685 -65.72506 
L 174.67269 -65.90841 
L 175.547694 -66.400121 
L 176.422699 -66.710958 
L 177.297704 -67.099509 
L 178.172709 -67.215029 
L 179.047714 -67.57157 
L 179.922719 -67.850218 
L 180.797724 -67.509553 
L 181.672728 -67.325626 
L 182.547733 -67.113967 
L 183.422738 -66.871271 
L 184.297743 -66.485078 
L 185.172748 -66.090481 
L 186.047753 -66.217826 
L 186.922758 -66.160689 
L 187.797763 -65.798922 
L 188.672767 -65.670401 
L 189.547772 -65.598516 
L 190.422777 -65.338641 
L 191.297782 -65.195995 
L 192.172787 -65.316474 
L 193.047792 -65.282109 
L 193.922797 -65.116525 
L 194.797802 -65.376962 
L 195.672806 -65.378334 
L 196.547811 -65.339115 
L 197.422816 -65.289651 
L 198.297821 -65.334249 
L 199.172826 -65.493458 
L 200.047831 -65.668932 
L 200.922836 -65.74623 
L 201.79784 -65.861544 
L 202.672845 -65.787433 
L 203.54785 -65.93468 
L 204.422855 -66.106431 
L 205.29786 -66.031535 
L 206.172865 -66.090543 
L 207.04787 -66.156331 
L 207.922875 -65.875648 
L 208.797879 -65.958674 
L 209.672884 -66.043699 
L 210.547889 -66.226485 
L 211.422894 -66.456854 
L 212.297899 -66.689967 
L 213.172904 -66.984928 
L 214.047909 -67.189801 
L 214.922913 -67.393391 
L 215.797918 -67.534237 
L 216.672923 -67.562916 
L 217.547928 -67.713189 
L 218.422933 -68.00891 
L 219.297938 -68.217734 
L 220.172943 -68.435455 
L 221.047948 -68.654804 
L 221.922952 -68.875719 
L 222.797957 -69.098146 
L 223.672962 -69.259406 
L 224.547967 -69.42684 
L 225.422972 -69.592153 
L 226.297977 -69.795428 
L 227.172982 -70.027208 
L 228.047986 -70.260329 
L 228.922991 -70.498128 
L 229.797996 -70.74299 
L 230.673001 -70.98934 
L 231.548006 -71.237144 
z
" style="stroke: #ddaa33; stroke-opacity: 0.2"/>
    </defs>
    <g clip-path="url(#pa0cfaecd11)">
     <use xlink:href="#m267fcea07c" x="0" y="144" style="fill: #ddaa33; fill-opacity: 0.2; stroke: #ddaa33; stroke-opacity: 0.2"/>
    </g>
   </g>
   <g id="matplotlib.axis_3">
    <g id="xtick_16">
     <g id="line2d_93">
      <g>
       <use xlink:href="#mcd1eb77e49" x="222.760007" y="116.67553" style="stroke: #000000"/>
      </g>
     </g>
     <g id="line2d_94">
      <g>
       <use xlink:href="#mc1ae6f8278" x="222.760007" y="14.72649" style="stroke: #000000"/>
      </g>
     </g>
     <g id="text_14">
      <text style="font: 8px 'Arial'; text-anchor: middle" x="222.760007" y="125.90178" transform="rotate(-0 222.760007 125.90178)">−50</text>
     </g>
    </g>
    <g id="xtick_17">
     <g id="line2d_95">
      <g>
       <use xlink:href="#mcd1eb77e49" x="190.427415" y="116.67553" style="stroke: #000000"/>
      </g>
     </g>
     <g id="line2d_96">
      <g>
       <use xlink:href="#mc1ae6f8278" x="190.427415" y="14.72649" style="stroke: #000000"/>
      </g>
     </g>
     <g id="text_15">
      <text style="font: 8px 'Arial'; text-anchor: middle" x="190.427415" y="125.90178" transform="rotate(-0 190.427415 125.90178)">0</text>
     </g>
    </g>
    <g id="xtick_18">
     <g id="line2d_97">
      <g>
       <use xlink:href="#mcd1eb77e49" x="158.094822" y="116.67553" style="stroke: #000000"/>
      </g>
     </g>
     <g id="line2d_98">
      <g>
       <use xlink:href="#mc1ae6f8278" x="158.094822" y="14.72649" style="stroke: #000000"/>
      </g>
     </g>
     <g id="text_16">
      <text style="font: 8px 'Arial'; text-anchor: middle" x="158.094822" y="125.90178" transform="rotate(-0 158.094822 125.90178)">50</text>
     </g>
    </g>
    <g id="xtick_19">
     <g id="line2d_99">
      <g>
       <use xlink:href="#m0b79c24dd2" x="235.693044" y="116.67553" style="stroke: #000000"/>
      </g>
     </g>
     <g id="line2d_100">
      <g>
       <use xlink:href="#m449a3c74da" x="235.693044" y="14.72649" style="stroke: #000000"/>
      </g>
     </g>
    </g>
    <g id="xtick_20">
     <g id="line2d_101">
      <g>
       <use xlink:href="#m0b79c24dd2" x="229.226526" y="116.67553" style="stroke: #000000"/>
      </g>
     </g>
     <g id="line2d_102">
      <g>
       <use xlink:href="#m449a3c74da" x="229.226526" y="14.72649" style="stroke: #000000"/>
      </g>
     </g>
    </g>
    <g id="xtick_21">
     <g id="line2d_103">
      <g>
       <use xlink:href="#m0b79c24dd2" x="216.293489" y="116.67553" style="stroke: #000000"/>
      </g>
     </g>
     <g id="line2d_104">
      <g>
       <use xlink:href="#m449a3c74da" x="216.293489" y="14.72649" style="stroke: #000000"/>
      </g>
     </g>
    </g>
    <g id="xtick_22">
     <g id="line2d_105">
      <g>
       <use xlink:href="#m0b79c24dd2" x="209.82697" y="116.67553" style="stroke: #000000"/>
      </g>
     </g>
     <g id="line2d_106">
      <g>
       <use xlink:href="#m449a3c74da" x="209.82697" y="14.72649" style="stroke: #000000"/>
      </g>
     </g>
    </g>
    <g id="xtick_23">
     <g id="line2d_107">
      <g>
       <use xlink:href="#m0b79c24dd2" x="203.360452" y="116.67553" style="stroke: #000000"/>
      </g>
     </g>
     <g id="line2d_108">
      <g>
       <use xlink:href="#m449a3c74da" x="203.360452" y="14.72649" style="stroke: #000000"/>
      </g>
     </g>
    </g>
    <g id="xtick_24">
     <g id="line2d_109">
      <g>
       <use xlink:href="#m0b79c24dd2" x="196.893933" y="116.67553" style="stroke: #000000"/>
      </g>
     </g>
     <g id="line2d_110">
      <g>
       <use xlink:href="#m449a3c74da" x="196.893933" y="14.72649" style="stroke: #000000"/>
      </g>
     </g>
    </g>
    <g id="xtick_25">
     <g id="line2d_111">
      <g>
       <use xlink:href="#m0b79c24dd2" x="183.960896" y="116.67553" style="stroke: #000000"/>
      </g>
     </g>
     <g id="line2d_112">
      <g>
       <use xlink:href="#m449a3c74da" x="183.960896" y="14.72649" style="stroke: #000000"/>
      </g>
     </g>
    </g>
    <g id="xtick_26">
     <g id="line2d_113">
      <g>
       <use xlink:href="#m0b79c24dd2" x="177.494378" y="116.67553" style="stroke: #000000"/>
      </g>
     </g>
     <g id="line2d_114">
      <g>
       <use xlink:href="#m449a3c74da" x="177.494378" y="14.72649" style="stroke: #000000"/>
      </g>
     </g>
    </g>
    <g id="xtick_27">
     <g id="line2d_115">
      <g>
       <use xlink:href="#m0b79c24dd2" x="171.027859" y="116.67553" style="stroke: #000000"/>
      </g>
     </g>
     <g id="line2d_116">
      <g>
       <use xlink:href="#m449a3c74da" x="171.027859" y="14.72649" style="stroke: #000000"/>
      </g>
     </g>
    </g>
    <g id="xtick_28">
     <g id="line2d_117">
      <g>
       <use xlink:href="#m0b79c24dd2" x="164.561341" y="116.67553" style="stroke: #000000"/>
      </g>
     </g>
     <g id="line2d_118">
      <g>
       <use xlink:href="#m449a3c74da" x="164.561341" y="14.72649" style="stroke: #000000"/>
      </g>
     </g>
    </g>
    <g id="xtick_29">
     <g id="line2d_119">
      <g>
       <use xlink:href="#m0b79c24dd2" x="151.628304" y="116.67553" style="stroke: #000000"/>
      </g>
     </g>
     <g id="line2d_120">
      <g>
       <use xlink:href="#m449a3c74da" x="151.628304" y="14.72649" style="stroke: #000000"/>
      </g>
     </g>
    </g>
    <g id="xtick_30">
     <g id="line2d_121">
      <g>
       <use xlink:href="#m0b79c24dd2" x="145.161785" y="116.67553" style="stroke: #000000"/>
      </g>
     </g>
     <g id="line2d_122">
      <g>
       <use xlink:href="#m449a3c74da" x="145.161785" y="14.72649" style="stroke: #000000"/>
      </g>
     </g>
    </g>
   </g>
   <g id="matplotlib.axis_4">
    <g id="ytick_31">
     <g id="line2d_123">
      <g>
       <use xlink:href="#m0ae4ffa41b" x="140.59125" y="112.343947" style="stroke: #000000"/>
      </g>
     </g>
     <g id="line2d_124">
      <g>
       <use xlink:href="#m7d76c1de21" x="235.87928" y="112.343947" style="stroke: #000000"/>
      </g>
     </g>
     <g id="text_17">
      <text style="font: 8px 'Arial'; text-anchor: end" x="137.09125" y="115.207072" transform="rotate(-0 137.09125 115.207072)">0</text>
     </g>
    </g>
    <g id="ytick_32">
     <g id="line2d_125">
      <g>
       <use xlink:href="#m0ae4ffa41b" x="140.59125" y="90.316155" style="stroke: #000000"/>
      </g>
     </g>
     <g id="line2d_126">
      <g>
       <use xlink:href="#m7d76c1de21" x="235.87928" y="90.316155" style="stroke: #000000"/>
      </g>
     </g>
     <g id="text_18">
      <text style="font: 8px 'Arial'; text-anchor: end" x="137.09125" y="93.17928" transform="rotate(-0 137.09125 93.17928)">20</text>
     </g>
    </g>
    <g id="ytick_33">
     <g id="line2d_127">
      <g>
       <use xlink:href="#m0ae4ffa41b" x="140.59125" y="68.288362" style="stroke: #000000"/>
      </g>
     </g>
     <g id="line2d_128">
      <g>
       <use xlink:href="#m7d76c1de21" x="235.87928" y="68.288362" style="stroke: #000000"/>
      </g>
     </g>
     <g id="text_19">
      <text style="font: 8px 'Arial'; text-anchor: end" x="137.09125" y="71.151487" transform="rotate(-0 137.09125 71.151487)">40</text>
     </g>
    </g>
    <g id="ytick_34">
     <g id="line2d_129">
      <g>
       <use xlink:href="#m0ae4ffa41b" x="140.59125" y="46.26057" style="stroke: #000000"/>
      </g>
     </g>
     <g id="line2d_130">
      <g>
       <use xlink:href="#m7d76c1de21" x="235.87928" y="46.26057" style="stroke: #000000"/>
      </g>
     </g>
     <g id="text_20">
      <text style="font: 8px 'Arial'; text-anchor: end" x="137.09125" y="49.123695" transform="rotate(-0 137.09125 49.123695)">60</text>
     </g>
    </g>
    <g id="ytick_35">
     <g id="line2d_131">
      <g>
       <use xlink:href="#m0ae4ffa41b" x="140.59125" y="24.232778" style="stroke: #000000"/>
      </g>
     </g>
     <g id="line2d_132">
      <g>
       <use xlink:href="#m7d76c1de21" x="235.87928" y="24.232778" style="stroke: #000000"/>
      </g>
     </g>
     <g id="text_21">
      <text style="font: 8px 'Arial'; text-anchor: end" x="137.09125" y="27.095903" transform="rotate(-0 137.09125 27.095903)">80</text>
     </g>
    </g>
    <g id="ytick_36">
     <g id="line2d_133">
      <g>
       <use xlink:href="#mc9929e628c" x="140.59125" y="106.836999" style="stroke: #000000"/>
      </g>
     </g>
     <g id="line2d_134">
      <g>
       <use xlink:href="#m0a0258b016" x="235.87928" y="106.836999" style="stroke: #000000"/>
      </g>
     </g>
    </g>
    <g id="ytick_37">
     <g id="line2d_135">
      <g>
       <use xlink:href="#mc9929e628c" x="140.59125" y="101.330051" style="stroke: #000000"/>
      </g>
     </g>
     <g id="line2d_136">
      <g>
       <use xlink:href="#m0a0258b016" x="235.87928" y="101.330051" style="stroke: #000000"/>
      </g>
     </g>
    </g>
    <g id="ytick_38">
     <g id="line2d_137">
      <g>
       <use xlink:href="#mc9929e628c" x="140.59125" y="95.823103" style="stroke: #000000"/>
      </g>
     </g>
     <g id="line2d_138">
      <g>
       <use xlink:href="#m0a0258b016" x="235.87928" y="95.823103" style="stroke: #000000"/>
      </g>
     </g>
    </g>
    <g id="ytick_39">
     <g id="line2d_139">
      <g>
       <use xlink:href="#mc9929e628c" x="140.59125" y="84.809207" style="stroke: #000000"/>
      </g>
     </g>
     <g id="line2d_140">
      <g>
       <use xlink:href="#m0a0258b016" x="235.87928" y="84.809207" style="stroke: #000000"/>
      </g>
     </g>
    </g>
    <g id="ytick_40">
     <g id="line2d_141">
      <g>
       <use xlink:href="#mc9929e628c" x="140.59125" y="79.302258" style="stroke: #000000"/>
      </g>
     </g>
     <g id="line2d_142">
      <g>
       <use xlink:href="#m0a0258b016" x="235.87928" y="79.302258" style="stroke: #000000"/>
      </g>
     </g>
    </g>
    <g id="ytick_41">
     <g id="line2d_143">
      <g>
       <use xlink:href="#mc9929e628c" x="140.59125" y="73.79531" style="stroke: #000000"/>
      </g>
     </g>
     <g id="line2d_144">
      <g>
       <use xlink:href="#m0a0258b016" x="235.87928" y="73.79531" style="stroke: #000000"/>
      </g>
     </g>
    </g>
    <g id="ytick_42">
     <g id="line2d_145">
      <g>
       <use xlink:href="#mc9929e628c" x="140.59125" y="62.781414" style="stroke: #000000"/>
      </g>
     </g>
     <g id="line2d_146">
      <g>
       <use xlink:href="#m0a0258b016" x="235.87928" y="62.781414" style="stroke: #000000"/>
      </g>
     </g>
    </g>
    <g id="ytick_43">
     <g id="line2d_147">
      <g>
       <use xlink:href="#mc9929e628c" x="140.59125" y="57.274466" style="stroke: #000000"/>
      </g>
     </g>
     <g id="line2d_148">
      <g>
       <use xlink:href="#m0a0258b016" x="235.87928" y="57.274466" style="stroke: #000000"/>
      </g>
     </g>
    </g>
    <g id="ytick_44">
     <g id="line2d_149">
      <g>
       <use xlink:href="#mc9929e628c" x="140.59125" y="51.767518" style="stroke: #000000"/>
      </g>
     </g>
     <g id="line2d_150">
      <g>
       <use xlink:href="#m0a0258b016" x="235.87928" y="51.767518" style="stroke: #000000"/>
      </g>
     </g>
    </g>
    <g id="ytick_45">
     <g id="line2d_151">
      <g>
       <use xlink:href="#mc9929e628c" x="140.59125" y="40.753622" style="stroke: #000000"/>
      </g>
     </g>
     <g id="line2d_152">
      <g>
       <use xlink:href="#m0a0258b016" x="235.87928" y="40.753622" style="stroke: #000000"/>
      </g>
     </g>
    </g>
    <g id="ytick_46">
     <g id="line2d_153">
      <g>
       <use xlink:href="#mc9929e628c" x="140.59125" y="35.246674" style="stroke: #000000"/>
      </g>
     </g>
     <g id="line2d_154">
      <g>
       <use xlink:href="#m0a0258b016" x="235.87928" y="35.246674" style="stroke: #000000"/>
      </g>
     </g>
    </g>
    <g id="ytick_47">
     <g id="line2d_155">
      <g>
       <use xlink:href="#mc9929e628c" x="140.59125" y="29.739726" style="stroke: #000000"/>
      </g>
     </g>
     <g id="line2d_156">
      <g>
       <use xlink:href="#m0a0258b016" x="235.87928" y="29.739726" style="stroke: #000000"/>
      </g>
     </g>
    </g>
    <g id="ytick_48">
     <g id="line2d_157">
      <g>
       <use xlink:href="#mc9929e628c" x="140.59125" y="18.72583" style="stroke: #000000"/>
      </g>
     </g>
     <g id="line2d_158">
      <g>
       <use xlink:href="#m0a0258b016" x="235.87928" y="18.72583" style="stroke: #000000"/>
      </g>
     </g>
    </g>
   </g>
   <g id="line2d_159">
    <path d="M 231.548006 104.681154 
L 230.673001 104.71862 
L 229.797996 104.757321 
L 228.922991 104.797186 
L 228.047986 104.83814 
L 227.172982 104.880107 
L 226.297977 104.923006 
L 225.422972 104.966753 
L 224.547967 105.011263 
L 223.672962 105.056446 
L 222.797957 105.102209 
L 221.922952 105.148459 
L 221.047948 105.195094 
L 220.172943 105.242015 
L 219.297938 105.289115 
L 218.422933 105.336287 
L 217.547928 105.383419 
L 216.672923 105.430399 
L 215.797918 105.47711 
L 214.922913 105.523468 
L 214.047909 105.569433 
L 213.172904 105.614978 
L 212.297899 105.660083 
L 211.422894 105.704739 
L 210.547889 105.748956 
L 209.672884 105.792739 
L 208.797879 105.836103 
L 207.922875 105.879063 
L 207.04787 105.921697 
L 206.172865 105.964195 
L 205.29786 106.006846 
L 204.422855 106.050029 
L 203.54785 106.09424 
L 202.672845 106.140106 
L 201.79784 106.188423 
L 200.922836 106.240172 
L 200.047831 106.296531 
L 199.172826 106.358793 
L 198.297821 106.42827 
L 197.422816 106.506138 
L 196.547811 106.592988 
L 195.672806 106.688199 
L 194.797802 106.789111 
L 193.922797 106.889264 
L 193.047792 106.990649 
L 192.172787 107.091559 
L 191.297782 107.191981 
L 190.422777 107.291836 
L 189.547772 107.390854 
L 188.672767 107.48864 
L 187.797763 107.585107 
L 186.922758 107.682389 
L 186.047753 107.785711 
L 185.172748 107.901834 
L 184.297743 108.021241 
L 183.422738 108.113865 
L 182.547733 108.1729 
L 181.672728 108.233874 
L 180.797724 108.276857 
L 179.922719 108.284743 
L 179.047714 108.292932 
L 178.172709 108.332017 
L 177.297704 108.338437 
L 176.422699 108.310859 
L 175.547694 108.282564 
L 174.67269 108.280203 
L 173.797685 108.266814 
L 172.92268 108.235951 
L 172.047675 108.204342 
L 171.17267 108.170841 
L 170.297665 108.138347 
L 169.42266 108.106805 
L 168.547655 108.076118 
L 167.672651 108.04608 
L 166.797646 108.016501 
L 165.922641 107.987213 
L 165.047636 107.958066 
L 164.172631 107.928929 
L 163.297626 107.899682 
L 162.422621 107.870195 
L 161.547617 107.840318 
L 160.672612 107.809902 
L 159.797607 107.778828 
L 158.922602 107.746998 
L 158.047597 107.71434 
L 157.172592 107.680813 
L 156.297587 107.646441 
L 155.422582 107.611279 
L 154.547578 107.57537 
L 153.672573 107.538784 
L 152.797568 107.501598 
L 151.922563 107.463867 
L 151.047558 107.425643 
L 150.172553 107.386974 
L 149.297548 107.347873 
L 148.422544 107.308339 
L 147.547539 107.26837 
L 146.672534 107.227966 
L 145.797529 107.187132 
L 144.922524 107.145923 
" clip-path="url(#pa0cfaecd11)" style="fill: none; stroke: #004488; stroke-linecap: square"/>
   </g>
   <g id="line2d_160">
    <path d="M 231.548006 90.046807 
L 230.673001 89.972175 
L 229.797996 89.896265 
L 228.922991 89.819153 
L 228.047986 89.74092 
L 227.172982 89.661647 
L 226.297977 89.581416 
L 225.422972 89.500315 
L 224.547967 89.418429 
L 223.672962 89.335849 
L 222.797957 89.252665 
L 221.922952 89.168971 
L 221.047948 89.084862 
L 220.172943 89.000435 
L 219.297938 88.915788 
L 218.422933 88.831022 
L 217.547928 88.746239 
L 216.672923 88.661541 
L 215.797918 88.577032 
L 214.922913 88.492718 
L 214.047909 88.408461 
L 213.172904 88.324089 
L 212.297899 88.239403 
L 211.422894 88.154178 
L 210.547889 88.068138 
L 209.672884 87.980851 
L 208.797879 87.891762 
L 207.922875 87.800411 
L 207.04787 87.706502 
L 206.172865 87.609904 
L 205.29786 87.510488 
L 204.422855 87.40808 
L 203.54785 87.302399 
L 202.672845 87.192884 
L 201.79784 87.078794 
L 200.922836 86.959246 
L 200.047831 86.833232 
L 199.172826 86.699525 
L 198.297821 86.556846 
L 197.422816 86.404486 
L 196.547811 86.242704 
L 195.672806 86.073425 
L 194.797802 85.901125 
L 193.922797 85.742797 
L 193.047792 85.582569 
L 192.172787 85.431923 
L 191.297782 85.294064 
L 190.422777 85.173539 
L 189.547772 85.076558 
L 188.672767 85.011572 
L 187.797763 84.987866 
L 186.922758 85.007049 
L 186.047753 85.042807 
L 185.172748 85.057541 
L 184.297743 84.957734 
L 183.422738 84.740177 
L 182.547733 84.683501 
L 181.672728 84.506242 
L 180.797724 84.434158 
L 179.922719 84.607263 
L 179.047714 84.695116 
L 178.172709 84.527605 
L 177.297704 84.578928 
L 176.422699 84.829534 
L 175.547694 85.065518 
L 174.67269 85.10426 
L 173.797685 85.177107 
L 172.92268 85.36648 
L 172.047675 85.516668 
L 171.17267 85.724895 
L 170.297665 85.880493 
L 169.42266 85.979598 
L 168.547655 86.025884 
L 167.672651 86.026147 
L 166.797646 85.988151 
L 165.922641 85.919414 
L 165.047636 85.82663 
L 164.172631 85.715473 
L 163.297626 85.59056 
L 162.422621 85.455268 
L 161.547617 85.312019 
L 160.672612 85.162628 
L 159.797607 85.008407 
L 158.922602 84.850255 
L 158.047597 84.688727 
L 157.172592 84.523973 
L 156.297587 84.355836 
L 155.422582 84.183849 
L 154.547578 84.00721 
L 153.672573 83.824953 
L 152.797568 83.635914 
L 151.922563 83.438796 
L 151.047558 83.232332 
L 150.172553 83.015335 
L 149.297548 82.786884 
L 148.422544 82.546193 
L 147.547539 82.292513 
L 146.672534 82.025138 
L 145.797529 81.743432 
L 144.922524 81.447098 
" clip-path="url(#pa0cfaecd11)" style="fill: none; stroke: #ddaa33; stroke-linecap: square"/>
   </g>
   <g id="patch_8">
    <path d="M 140.59125 116.67553 
L 140.59125 14.72649 
" style="fill: none; stroke: #000000; stroke-linejoin: miter; stroke-linecap: square"/>
   </g>
   <g id="patch_9">
    <path d="M 235.87928 116.67553 
L 235.87928 14.72649 
" style="fill: none; stroke: #000000; stroke-linejoin: miter; stroke-linecap: square"/>
   </g>
   <g id="patch_10">
    <path d="M 140.59125 116.67553 
L 235.87928 116.67553 
" style="fill: none; stroke: #000000; stroke-linejoin: miter; stroke-linecap: square"/>
   </g>
   <g id="patch_11">
    <path d="M 140.59125 14.72649 
L 235.87928 14.72649 
" style="fill: none; stroke: #000000; stroke-linejoin: miter; stroke-linecap: square"/>
   </g>
   <g id="text_22">
    <!-- $\mathdefault{p = 0.562}$, r = -0.10 -->
    <g style="fill: #004488" transform="translate(148.395045 37.948196)">
     <text>
      <tspan style="font: 8px 'Arial'" x="0 5.658817 11.540289 15.989508 18.212164 22.661383 27.110602 31.559821 33.782477 36.005133 38.669196 40.891852 45.563727 47.786383 50.450446 54.899664 57.122321 61.571539" y="-0.25">p=0.562, r = -0.10</tspan>
     </text>
    </g>
   </g>
   <g id="text_23">
    <!-- $\mathdefault{p = 0.496}$, r = 0.12 -->
    <g style="fill: #ddaa33" transform="translate(148.395045 46.26057)">
     <text>
      <tspan style="font: 8px 'Arial'" x="0 5.658817 11.540289 15.989508 18.212164 22.661383 27.110602 31.559821 33.782477 36.005133 38.669196 40.891852 45.563727 47.786383 52.235602 54.458258 58.907477" y="-0.25">p=0.496, r = 0.12</tspan>
     </text>
    </g>
   </g>
   <g id="text_24">
    <text style="font: 8px 'Arial'; text-anchor: middle" x="188.235265" y="8.72649" transform="rotate(-0 188.235265 8.72649)">Bicep muscle</text>
   </g>
  </g>
  <g id="text_25">
   <text style="font: 700 8px 'Arial'; text-anchor: middle" x="144" y="139.31601" transform="rotate(-0 144 139.31601)">ITA (degrees)</text>
  </g>
  <g id="legend_1">
   <g id="PathCollection_5">
    <g>
     <use xlink:href="#me51b6c6559" x="252.88" y="66.841875" style="fill: #004488; stroke: #004488"/>
    </g>
   </g>
   <g id="text_26">
    <!-- sO$_\mathbf{2}^\mathbf{EST}$ -->
    <g transform="translate(267.28 68.941875)">
     <text>
      <tspan style="font: 8px 'Arial'" x="0 4" y="-0.9812500000000011">sO</tspan>
      <tspan style="font: 700 5.6px 'STIXGeneral'" x="10.286094 10.286094 13.842084 16.944478" y="-4.128125000000001 0.8312499999999989 -4.128125000000001 -4.128125000000001">𝗘𝟮𝗦𝗧</tspan>
     </text>
    </g>
   </g>
   <g id="PathCollection_6">
    <g>
     <use xlink:href="#m3d37059c14" x="252.88" y="78.408125" style="fill: #ddaa33; stroke: #ddaa33"/>
    </g>
   </g>
   <g id="text_27">
    <text style="font: 8px 'Arial'; text-anchor: start" x="267.28" y="80.508125" transform="rotate(-0 267.28 80.508125)">THb</text>
   </g>
  </g>
 </g>
 <defs>
  <clipPath id="pc6742f1cda">
   <rect x="26.90524" y="14.72649" width="95.28803" height="101.94904"/>
  </clipPath>
  <clipPath id="pa0cfaecd11">
   <rect x="140.59125" y="14.72649" width="95.28803" height="101.94904"/>
  </clipPath>
 </defs>
</svg>
